{"glyphs":{"0":{"ha":818,"x_min":3,"x_max":732,"o":"m 367 -14 q 225 28 292 -14 q 108 143 157 71 q 30 315 57 218 q 3 517 3 411 q 30 720 3 624 q 108 892 57 817 q 225 1007 160 965 q 367 1049 292 1049 q 510 1007 443 1049 q 626 892 575 965 q 705 720 678 817 q 732 517 732 624 q 705 315 732 411 q 626 143 678 218 q 510 28 578 71 q 367 -14 443 -14 m 367 1035 q 231 994 294 1035 q 119 883 167 953 q 44 718 72 813 q 17 517 17 624 q 44 316 17 410 q 119 152 72 222 q 231 41 167 82 q 367 0 294 0 q 503 41 439 0 q 615 152 568 82 q 690 316 663 222 q 718 517 718 410 q 690 718 718 624 q 615 883 663 813 q 503 994 568 953 q 367 1035 439 1035 z "},"1":{"ha":236,"x_min":7,"x_max":121,"o":"m 114 1039 l 121 1039 l 121 -6 l 107 -6 l 107 1006 l 21 808 l 7 814 l 107 1042 l 114 1039 l 114 1039 z "},"2":{"ha":769,"x_min":3,"x_max":710,"o":"m 72 136 q 34 60 44 93 q 21 13 24 26 l 685 13 l 685 -1 l 4 -1 l 6 7 q 15 47 6 8 q 61 143 25 85 q 108 207 82 176 q 167 265 135 238 q 360 382 246 333 q 498 441 431 410 q 611 513 565 472 q 676 594 656 550 q 696 697 696 639 q 669 817 696 757 q 597 926 643 878 q 490 1006 551 975 q 356 1038 428 1038 q 224 1010 286 1038 q 117 938 163 983 q 44 830 71 892 q 17 697 17 768 l 3 697 q 29 833 3 768 q 106 947 56 897 q 221 1024 157 997 q 356 1051 285 1051 q 494 1019 426 1051 q 607 938 556 990 q 649 884 631 913 q 682 824 668 856 q 710 697 710 760 q 688 589 710 636 q 621 501 667 542 q 504 428 572 461 q 365 368 436 396 q 173 252 242 317 q 72 136 104 188 z "},"3":{"ha":665,"x_min":3,"x_max":604,"o":"m 571 407 q 599 329 594 364 q 604 293 604 294 l 604 292 q 581 177 604 232 q 517 79 558 122 q 419 14 474 36 q 303 -8 364 -8 q 188 14 243 -8 q 90 79 133 36 q 25 177 47 122 q 3 292 3 232 l 17 292 q 40 181 17 233 q 101 90 63 129 q 192 28 140 51 q 303 6 244 6 q 415 28 363 6 q 506 90 467 51 q 567 181 544 129 q 590 292 590 233 q 585 327 590 294 q 558 400 581 360 q 347 507 496 507 l 331 507 l 343 518 q 358 522 344 521 q 590 743 590 547 q 567 855 590 803 q 506 946 544 907 q 415 1008 467 985 q 303 1031 363 1031 q 192 1008 244 1031 q 101 946 140 985 q 40 855 63 907 q 17 743 17 803 l 3 743 q 25 859 3 804 q 90 957 47 914 q 188 1022 133 999 q 303 1044 243 1044 q 419 1022 364 1044 q 517 957 474 999 q 581 859 558 914 q 604 743 604 804 q 500 550 604 610 q 453 528 476 536 q 408 515 429 519 q 493 485 457 507 q 571 407 542 457 z "},"4":{"ha":558,"x_min":0,"x_max":490,"o":"m 476 1038 l 490 1038 l 490 -1 l 476 -1 l 476 503 l 0 503 l 0 1038 l 14 1038 l 14 517 l 476 517 l 476 1038 l 476 1038 z "},"5":{"ha":774,"x_min":1,"x_max":708,"o":"m 604 592 q 681 477 654 542 q 708 342 708 413 q 681 207 708 271 q 604 92 654 143 q 490 15 554 42 q 354 -11 425 -11 q 219 15 283 -11 q 104 92 156 42 q 28 207 54 143 q 1 342 1 271 l 15 342 q 42 210 15 272 q 115 103 69 149 q 223 30 161 57 q 354 3 285 3 q 487 30 425 3 q 594 103 549 57 q 667 210 640 149 q 694 342 694 272 q 667 474 694 413 q 594 582 640 536 q 487 655 549 628 q 354 682 425 682 l 57 682 l 183 1046 l 667 1046 l 667 1032 l 194 1032 l 76 696 l 354 696 q 490 669 425 696 q 604 592 554 642 z "},"6":{"ha":783,"x_min":1,"x_max":711,"o":"m 607 588 q 684 473 657 538 q 711 338 711 408 q 684 203 711 267 q 607 88 657 139 q 492 11 557 38 q 357 -15 428 -15 q 222 11 286 -15 q 107 88 158 38 q 31 203 57 139 q 4 338 4 267 q 4 350 4 344 q 6 363 4 356 l 1 363 q 93 844 1 669 q 303 1029 172 993 q 398 1039 349 1042 q 493 1017 447 1036 q 572 969 538 999 q 628 906 607 940 l 617 897 q 565 957 597 929 q 490 1002 532 985 q 401 1024 449 1019 q 306 1017 354 1029 q 106 838 179 981 q 17 432 25 685 q 107 588 40 521 q 222 665 158 638 q 357 692 286 692 q 492 665 428 692 q 607 588 557 638 m 357 -1 q 490 26 428 -1 q 597 99 551 53 q 670 206 643 144 q 697 338 697 268 q 670 470 697 408 q 597 578 643 532 q 490 651 551 624 q 357 678 428 678 q 226 651 288 678 q 118 578 164 624 q 45 470 72 532 q 18 338 18 408 q 45 206 18 268 q 118 99 72 144 q 226 26 164 53 q 357 -1 288 -1 z "},"7":{"ha":638,"x_min":-3,"x_max":613,"o":"m -3 1039 l 613 1039 l 282 -4 l 268 0 l 438 536 l 164 536 l 164 550 l 442 550 l 442 547 l 593 1025 l -3 1025 l -3 1039 l -3 1039 z "},"8":{"ha":604,"x_min":0,"x_max":546,"o":"m 331 526 q 416 491 376 515 q 484 431 456 467 q 529 352 513 396 q 546 258 546 308 q 524 152 546 201 q 466 66 503 103 q 379 8 429 29 q 272 -14 329 -14 q 166 8 215 -14 q 80 66 117 29 q 22 152 43 103 q 0 258 0 201 q 16 352 0 308 q 61 431 32 396 q 130 491 90 467 q 215 526 169 515 q 133 560 171 536 q 68 617 96 583 q 24 694 40 651 q 8 783 8 736 q 29 886 8 838 q 85 971 50 935 q 169 1028 121 1007 q 272 1049 218 1049 q 375 1028 326 1049 q 460 971 424 1007 q 517 886 496 935 q 538 783 538 838 q 522 694 538 736 q 478 617 506 651 q 413 560 450 583 q 331 526 375 536 m 22 783 q 42 686 22 732 q 95 606 61 640 q 175 553 129 572 q 272 533 221 533 q 369 553 324 533 q 450 606 415 572 q 504 686 485 640 q 524 783 524 732 q 504 881 524 835 q 450 961 485 926 q 369 1015 415 996 q 272 1035 324 1035 q 175 1015 221 1035 q 95 961 129 996 q 42 881 61 926 q 22 783 22 835 m 272 0 q 374 20 326 0 q 456 76 421 40 q 512 158 492 111 q 532 258 532 206 q 512 360 532 313 q 456 442 492 407 q 374 498 421 478 q 272 518 326 518 q 172 498 219 518 q 90 442 125 478 q 34 360 54 407 q 14 258 14 313 q 34 158 14 206 q 90 76 54 111 q 172 20 125 40 q 272 0 219 0 z "},"9":{"ha":778,"x_min":1,"x_max":711,"o":"m 711 672 q 619 190 711 365 q 410 6 540 42 q 335 -4 376 -4 q 219 19 278 -4 q 140 66 175 38 q 85 131 106 94 l 96 138 q 148 78 115 106 q 222 33 181 50 q 311 10 264 15 q 407 19 358 6 q 520 81 469 36 q 607 197 571 126 q 696 604 688 353 q 604 447 672 515 q 490 370 554 397 q 354 343 425 343 q 219 370 283 343 q 104 447 156 397 q 28 562 54 497 q 1 697 1 626 q 28 833 1 768 q 104 947 54 897 q 219 1024 156 997 q 354 1050 283 1050 q 490 1024 425 1050 q 604 947 554 997 q 681 833 654 897 q 708 697 708 768 q 708 685 708 690 q 707 672 708 679 l 711 672 m 354 357 q 487 384 425 357 q 594 457 549 411 q 667 565 640 503 q 694 697 694 626 q 667 830 694 768 q 594 938 640 892 q 487 1010 549 983 q 354 1036 425 1036 q 223 1010 285 1036 q 115 938 161 983 q 42 830 69 892 q 15 697 15 768 q 42 565 15 626 q 115 457 69 503 q 223 384 161 411 q 354 357 285 357 z "}," ":{"ha":694,"x_min":0,"x_max":0,"o":""}," ":{"ha":694,"x_min":0,"x_max":0,"o":""},"e":{"ha":686,"x_min":1,"x_max":624,"o":"m 17 379 l 610 379 q 585 501 608 444 q 522 600 563 558 q 428 666 482 642 q 313 690 375 690 q 198 663 251 690 q 103 590 144 636 q 39 481 63 543 q 15 350 15 419 q 39 219 15 281 q 103 111 63 157 q 197 38 143 65 q 313 11 251 11 q 406 28 361 11 q 488 75 450 44 q 553 148 525 106 q 596 243 581 190 l 610 239 q 497 65 578 133 q 313 -3 417 -3 q 193 24 250 -3 q 92 101 136 51 q 24 215 47 151 q 1 350 1 279 q 26 485 1 421 q 94 600 50 550 q 193 676 135 649 q 313 704 253 704 q 431 680 375 704 q 532 610 488 656 q 600 503 576 564 q 624 372 624 442 l 624 365 l 17 365 l 17 379 z "},"f":{"ha":503,"x_min":1,"x_max":521,"o":"m 261 1049 q 363 1028 315 1049 q 445 973 410 1008 q 501 890 481 938 q 521 789 521 843 l 507 789 q 488 885 507 840 q 435 963 468 929 q 356 1015 401 996 q 261 1035 311 1035 q 165 1015 210 1035 q 88 963 121 996 q 35 885 54 929 q 15 789 15 840 l 15 453 l 271 453 l 271 439 l 15 439 l 15 1 l 1 1 l 1 789 q 22 890 1 843 q 77 973 42 938 q 160 1028 113 1008 q 261 1049 207 1049 m 521 690 l 507 690 l 507 799 l 521 790 l 521 690 z "},"g":{"ha":679,"x_min":-1,"x_max":624,"o":"m 624 701 l 624 -42 q 600 -161 624 -104 q 532 -262 576 -218 q 431 -331 488 -307 q 311 -354 374 -354 q 192 -331 249 -354 q 90 -262 135 -307 q 22 -161 46 -218 q -1 -42 -1 -104 l 13 -42 q 36 -158 13 -104 q 100 -253 60 -212 q 195 -317 140 -293 q 311 -340 250 -340 q 428 -317 374 -340 q 522 -253 482 -293 q 586 -158 563 -212 q 610 -42 610 -104 l 610 244 q 531 94 589 160 q 430 17 486 44 q 310 -10 374 -10 q 190 17 247 -10 q 89 94 133 44 q 22 208 44 144 q -1 343 -1 272 q 22 478 -1 414 q 89 593 44 543 q 190 670 133 643 q 310 697 247 697 q 430 670 374 697 q 531 593 486 643 q 610 443 589 528 l 610 701 l 624 701 m 310 4 q 426 31 372 4 q 521 104 481 58 q 585 212 561 150 q 608 343 608 274 q 585 476 608 414 q 521 583 561 538 q 426 656 481 629 q 310 683 372 683 q 194 656 249 683 q 100 583 140 629 q 36 476 60 538 q 13 343 13 414 q 36 212 13 274 q 100 104 60 150 q 194 31 140 58 q 310 4 249 4 z "},"h":{"ha":682,"x_min":0,"x_max":624,"o":"m 532 601 q 600 487 576 551 q 624 351 624 422 l 624 6 l 610 6 l 610 351 q 586 484 610 422 q 522 592 563 546 q 428 665 482 638 q 311 692 374 692 q 201 668 253 692 q 110 603 150 644 q 46 505 71 561 q 15 385 21 449 l 15 4 l 1 4 l 1 351 l 0 351 q 0 369 0 361 q 1 386 0 378 l 1 1051 l 15 1051 l 15 463 q 90 601 39 542 q 192 678 135 651 q 311 706 249 706 q 431 678 375 706 q 532 601 488 651 z "},"i":{"ha":133,"x_min":29,"x_max":43,"o":"m 29 4 l 29 701 l 43 701 l 43 4 l 29 4 m 29 881 l 43 881 l 43 872 l 29 872 l 29 881 z "},"j":{"ha":540,"x_min":-50,"x_max":469,"o":"m 469 876 l 469 868 l 456 868 l 456 876 l 469 876 m 456 697 l 469 697 l 469 -90 q 449 -192 469 -144 q 394 -274 429 -239 q 311 -330 358 -310 q 210 -350 264 -350 q 108 -330 156 -350 q 26 -274 61 -310 q -30 -192 -10 -239 q -50 -90 -50 -144 l -36 -90 q -17 -186 -36 -142 q 36 -264 3 -231 q 114 -317 69 -297 q 210 -336 158 -336 q 306 -317 261 -336 q 383 -264 350 -297 q 436 -186 417 -231 q 456 -90 456 -142 l 456 697 m -50 6 l -36 6 l -36 -103 l -50 -94 l -50 6 z "},"k":{"ha":563,"x_min":0,"x_max":532,"o":"m 522 -10 l 175 338 l 15 178 l 15 -3 l 1 -3 l 1 182 l 0 183 l 1 183 l 1 1044 l 15 1044 l 15 197 l 514 696 l 524 686 l 186 347 l 532 1 l 522 -10 l 522 -10 z "},"l":{"ha":124,"x_min":25,"x_max":39,"o":"m 39 -3 l 25 -3 l 25 1044 l 39 1044 l 39 -3 l 39 -3 l 39 -3 z "},"m":{"ha":1093,"x_min":0,"x_max":1021,"o":"m 761 703 q 863 683 815 703 q 945 627 910 663 q 1001 544 981 592 q 1021 443 1021 497 l 1021 0 l 1007 0 l 1007 443 q 988 539 1007 494 q 935 617 968 583 q 857 669 901 650 q 761 689 813 689 q 672 672 714 689 q 598 626 631 656 q 544 558 565 597 q 518 474 524 519 q 519 458 518 467 q 519 442 519 450 l 519 -1 l 506 -1 l 506 442 l 506 443 l 501 443 q 502 459 501 451 q 503 474 503 467 q 476 558 497 519 q 422 626 454 597 q 349 671 390 654 q 260 688 307 688 q 169 670 211 688 q 94 623 126 653 q 40 553 61 593 q 15 465 19 513 l 15 1 l 1 1 l 1 442 l 0 442 q 0 454 0 449 q 1 467 0 460 l 1 699 l 15 699 l 15 529 q 109 653 43 604 q 260 701 175 701 q 345 687 304 701 q 419 647 386 672 q 475 586 451 621 q 510 510 499 551 q 545 587 521 551 q 602 648 569 622 q 676 688 635 674 q 761 703 717 703 z "},"n":{"ha":674,"x_min":3,"x_max":628,"o":"m 536 597 q 604 483 581 547 q 628 347 628 418 l 628 1 l 614 1 l 614 347 q 590 480 614 418 q 526 588 567 542 q 432 660 486 633 q 315 688 378 688 q 200 660 254 688 q 106 588 146 633 q 42 480 65 542 q 18 347 18 418 l 17 347 l 17 0 l 3 0 l 3 686 l 17 686 l 17 447 q 47 528 28 490 q 94 597 67 565 q 196 674 139 647 q 315 701 253 701 q 435 674 379 701 q 536 597 492 647 z "},"o":{"ha":681,"x_min":0,"x_max":624,"o":"m 532 594 q 600 480 576 544 q 624 344 624 415 q 600 210 624 274 q 532 96 576 146 q 431 19 488 46 q 311 -8 375 -8 q 192 19 249 -8 q 90 96 135 46 q 23 210 46 146 q 0 344 0 274 q 23 480 0 415 q 90 594 46 544 q 192 672 135 644 q 311 699 249 699 q 431 672 375 699 q 532 594 488 644 m 311 6 q 428 33 374 6 q 522 106 482 60 q 586 213 563 151 q 610 344 610 275 q 586 477 610 415 q 522 585 563 539 q 428 658 482 631 q 311 685 374 685 q 196 658 250 685 q 101 585 142 631 q 38 477 61 539 q 14 344 14 415 q 38 213 14 275 q 101 106 61 151 q 196 33 142 60 q 311 6 250 6 z "},"p":{"ha":683,"x_min":1,"x_max":625,"o":"m 533 589 q 601 474 578 539 q 625 339 625 410 q 601 204 625 268 q 533 90 578 140 q 433 13 489 40 q 313 -14 376 -14 q 193 13 250 -14 q 92 90 136 40 q 45 158 64 121 q 15 235 26 194 l 15 -351 l 1 -351 l 1 339 l 1 340 l 1 690 l 15 690 l 15 444 q 45 522 26 485 q 92 589 64 558 q 193 666 136 639 q 313 693 250 693 q 433 666 376 693 q 533 589 489 639 m 313 0 q 429 27 375 0 q 524 100 483 54 q 588 208 564 146 q 611 339 611 269 q 588 472 611 410 q 524 579 564 533 q 429 652 483 625 q 313 679 375 679 q 197 653 251 679 q 103 581 143 626 q 39 473 63 535 q 15 340 15 411 l 15 339 q 39 206 15 268 q 103 99 63 144 q 197 26 143 53 q 313 0 251 0 z "},"q":{"ha":678,"x_min":-1,"x_max":622,"o":"m 622 -349 l 608 -349 l 608 238 q 578 160 597 197 q 531 93 558 124 q 430 16 486 43 q 310 -11 374 -11 q 190 16 247 -11 q 89 93 133 43 q 22 207 44 143 q -1 342 -1 271 q 22 477 -1 413 q 89 592 44 542 q 190 669 133 642 q 310 696 247 696 q 430 669 374 696 q 531 592 486 642 q 578 524 558 561 q 608 447 597 488 l 608 693 l 622 693 l 622 343 l 622 342 l 622 -349 m 310 3 q 426 29 372 3 q 521 101 481 56 q 585 209 561 147 q 608 342 608 271 l 608 343 q 585 476 608 414 q 521 583 561 538 q 426 656 481 629 q 310 682 372 682 q 194 655 249 682 q 100 582 140 628 q 36 474 60 536 q 13 342 13 413 q 36 210 13 272 q 100 103 60 149 q 194 30 140 57 q 310 3 249 3 z "},"r":{"ha":565,"x_min":0,"x_max":521,"o":"m 261 703 q 363 683 315 703 q 445 627 410 663 q 501 544 481 592 q 521 443 521 497 l 507 443 q 488 539 507 494 q 435 617 468 583 q 357 669 401 650 q 261 689 313 689 q 165 669 210 689 q 88 617 121 650 q 35 539 54 583 q 15 443 15 494 l 15 0 l 1 0 l 1 251 l 0 251 l 0 700 l 14 700 l 14 522 q 106 652 39 601 q 261 703 174 703 z "},"s":{"ha":567,"x_min":0,"x_max":519,"o":"m 443 321 q 519 190 519 282 q 442 44 519 94 q 260 0 374 0 q 158 20 206 0 q 76 76 111 40 q 20 158 40 111 q 0 260 0 206 l 14 260 q 33 164 14 208 q 86 86 53 119 q 164 33 119 53 q 260 14 208 14 q 435 57 368 14 q 506 190 506 103 q 436 308 506 274 q 369 332 406 325 q 297 343 332 339 q 282 345 290 344 q 267 347 274 346 q 192 362 235 353 q 110 390 149 371 q 19 513 19 435 q 86 654 19 603 q 260 703 150 703 q 361 683 314 703 q 444 627 408 663 q 499 544 479 592 q 519 443 519 497 l 506 443 q 486 539 506 494 q 433 617 467 583 q 356 669 400 650 q 260 689 311 689 q 93 642 153 689 q 33 513 33 596 q 117 403 33 442 q 195 376 153 385 q 269 361 238 367 q 284 359 276 360 q 300 357 292 358 q 373 344 335 351 q 443 321 411 338 z "},"t":{"ha":554,"x_min":1,"x_max":521,"o":"m 521 253 q 501 151 521 199 q 445 69 481 104 q 363 13 410 33 q 261 -7 315 -7 q 160 13 207 -7 q 77 69 113 33 q 22 151 42 104 q 1 253 1 199 l 1 1040 l 15 1040 l 15 700 l 507 700 l 507 686 l 15 686 l 15 253 q 35 157 15 201 q 88 79 54 113 q 165 26 121 46 q 261 7 210 7 q 356 26 311 7 q 435 79 401 46 q 488 157 468 113 q 507 253 507 201 l 521 253 z "},"u":{"ha":678,"x_min":0,"x_max":624,"o":"m 624 700 l 624 354 q 601 219 624 283 q 533 106 578 156 q 432 28 489 54 q 313 1 375 1 q 193 28 250 1 q 92 106 136 54 q 24 219 47 156 q 0 354 0 283 l 0 700 l 14 700 l 14 354 q 38 223 14 285 q 101 115 61 161 q 197 42 142 69 q 313 15 251 15 q 428 42 374 15 q 522 115 482 69 q 586 223 563 161 q 610 354 610 285 l 610 700 l 624 700 z "},"v":{"ha":675,"x_min":1,"x_max":624,"o":"m 611 696 l 624 689 l 300 -8 l 1 689 l 14 694 l 301 25 l 611 696 l 611 696 z "},"w":{"ha":936,"x_min":-6,"x_max":894,"o":"m 894 697 l 571 -1 l 438 311 l 293 -1 l -6 697 l 7 703 l 294 33 l 431 328 l 272 697 l 285 703 l 438 344 l 604 703 l 617 697 l 446 328 l 572 33 l 882 703 l 894 697 l 894 697 z "},"x":{"ha":643,"x_min":-4,"x_max":615,"o":"m 615 690 l 315 346 l 608 11 l 599 3 l 306 336 l 15 3 l 6 11 l 297 346 l -4 690 l 6 700 l 306 357 l 606 700 l 615 690 l 615 690 z "},"y":{"ha":683,"x_min":1,"x_max":626,"o":"m 626 704 l 626 -39 q 603 -158 626 -101 q 536 -260 581 -215 q 435 -328 492 -304 q 315 -351 378 -351 q 196 -328 253 -351 q 94 -260 139 -304 q 26 -158 50 -215 q 3 -39 3 -101 l 17 -39 q 40 -156 17 -101 q 104 -250 64 -210 q 199 -314 144 -290 q 315 -337 253 -337 q 431 -314 376 -337 q 525 -250 485 -290 q 589 -156 565 -210 q 613 -39 613 -101 l 613 247 q 535 97 592 160 q 433 20 490 47 q 314 -7 376 -7 q 194 20 251 -7 q 93 97 138 47 q 25 211 49 147 q 1 346 1 275 l 1 693 l 15 693 l 15 346 q 39 215 15 276 q 103 107 63 153 q 198 34 143 61 q 314 7 253 7 q 429 34 375 7 q 524 107 483 61 q 588 215 564 153 q 611 346 611 276 l 613 346 l 613 704 l 626 704 z "},"z":{"ha":657,"x_min":-6,"x_max":629,"o":"m 629 701 l 25 14 l 606 14 l 606 0 l -6 0 l 599 688 l 0 688 l 0 701 l 629 701 l 629 701 z "},"a":{"ha":575,"x_min":4,"x_max":531,"o":"m 268 696 q 370 675 322 696 q 453 619 418 654 q 510 536 489 583 q 531 435 531 489 l 531 -4 l 517 -4 l 517 299 q 510 265 514 282 q 501 233 507 249 q 469 152 489 189 q 426 85 450 115 q 324 1 383 31 q 213 -25 268 -25 q 68 26 126 -25 q 6 163 6 81 q 88 307 6 269 q 169 327 124 324 q 263 331 215 331 l 282 331 l 303 331 q 388 333 349 331 q 455 349 426 336 q 500 385 483 361 q 517 453 517 410 q 492 542 513 500 q 438 615 471 585 q 360 664 404 646 q 268 682 317 682 q 171 663 217 682 q 91 610 125 643 q 38 531 57 576 q 18 435 18 486 l 4 435 q 25 536 4 489 q 81 619 46 583 q 165 675 117 654 q 268 696 214 696 m 415 94 q 514 382 499 197 q 458 336 494 350 q 376 319 422 321 q 282 317 331 317 l 263 317 q 172 313 217 317 q 93 294 128 310 q 19 163 19 261 q 34 94 19 125 q 75 39 49 63 q 136 2 101 15 q 213 -11 171 -11 q 323 16 271 -11 q 415 94 375 43 z "},"b":{"ha":676,"x_min":0,"x_max":624,"o":"m 532 593 q 600 478 576 543 q 624 343 624 414 q 600 208 624 272 q 532 94 576 144 q 431 17 488 44 q 311 -10 375 -10 q 192 17 249 -10 q 90 94 135 44 q 45 159 64 124 q 15 233 26 194 l 15 -3 l 1 -3 l 1 310 q 0 326 0 318 q 0 343 0 335 q 0 361 0 353 q 1 378 0 369 l 1 1044 l 15 1044 l 15 454 q 90 593 39 533 q 192 670 135 643 q 311 697 249 697 q 431 670 375 697 q 532 593 488 643 m 311 4 q 428 31 374 4 q 522 104 482 58 q 586 212 563 150 q 610 343 610 274 q 586 476 610 414 q 522 583 563 538 q 428 656 482 629 q 311 683 374 683 q 201 660 253 683 q 110 594 150 636 q 46 497 71 553 q 15 376 21 440 l 15 311 q 46 190 21 246 q 110 93 71 135 q 201 28 150 51 q 311 4 253 4 z "},"c":{"ha":665,"x_min":6,"x_max":614,"o":"m 317 11 q 410 28 365 11 q 492 75 454 44 q 557 148 529 106 q 600 243 585 190 l 614 239 q 501 65 582 133 q 317 -3 421 -3 q 197 24 254 -3 q 96 101 140 51 q 28 215 51 151 q 6 350 6 279 q 28 485 6 421 q 96 600 51 550 q 197 677 140 650 q 317 704 254 704 q 501 636 421 704 q 614 461 582 568 l 600 458 q 557 553 585 510 q 492 626 529 596 q 410 674 454 657 q 317 690 365 690 q 201 663 256 690 q 107 590 147 636 q 43 483 67 544 q 19 350 19 421 q 43 219 19 281 q 107 111 67 157 q 201 38 147 65 q 317 11 256 11 z "},"d":{"ha":679,"x_min":-1,"x_max":622,"o":"m 622 -7 l 608 -7 l 608 235 q 578 158 597 194 q 531 90 558 121 q 430 13 486 40 q 310 -14 374 -14 q 190 13 247 -14 q 89 90 133 40 q 22 204 44 140 q -1 339 -1 268 q 22 474 -1 410 q 89 589 44 539 q 190 666 133 639 q 310 693 247 693 q 430 666 374 693 q 531 589 486 639 q 578 522 558 558 q 608 444 597 485 l 608 1040 l 622 1040 l 622 340 l 622 339 l 622 -7 m 310 0 q 426 26 372 0 q 521 99 481 53 q 585 206 561 144 q 608 339 608 268 l 608 340 q 585 473 608 411 q 521 581 561 535 q 426 653 481 626 q 310 679 372 679 q 194 652 249 679 q 100 579 140 625 q 36 472 60 533 q 13 339 13 410 q 36 208 13 269 q 100 100 60 146 q 194 27 140 54 q 310 0 249 0 z "},"A":{"ha":901,"x_min":-8,"x_max":893,"o":"m 879 -14 l 733 329 l 150 329 l 6 -14 l -8 -8 l 442 1049 l 893 -8 l 879 -14 m 157 343 l 728 343 l 442 1013 l 157 343 z "},"B":{"ha":626,"x_min":0,"x_max":576,"o":"m 485 529 q 553 426 529 485 q 576 304 576 368 q 553 183 576 240 q 485 81 529 125 q 381 12 439 36 q 260 -12 324 -12 l 0 -12 l 0 1047 l 272 1044 q 356 1027 317 1044 q 426 980 396 1010 q 473 910 456 950 q 490 825 490 871 q 478 753 490 788 q 445 692 467 719 q 394 644 424 664 q 329 614 364 624 q 485 529 417 596 m 14 622 l 260 622 q 272 622 267 622 q 283 621 278 622 q 359 640 324 624 q 420 685 394 657 q 461 749 446 713 q 476 825 476 785 q 460 906 476 868 q 417 971 444 943 q 351 1015 389 999 q 271 1031 314 1031 l 14 1033 l 14 622 m 260 1 q 377 25 322 1 q 474 90 432 49 q 539 187 515 132 q 563 304 563 242 q 541 417 563 364 q 482 510 519 469 q 393 577 444 551 q 283 607 342 603 l 271 607 l 271 608 l 260 608 l 14 608 l 14 1 l 260 1 z "},"C":{"ha":974,"x_min":3,"x_max":929,"o":"m 929 364 q 864 210 908 282 q 761 89 824 142 q 626 8 699 36 q 476 -19 554 -19 q 292 22 379 -19 q 140 138 208 63 q 38 311 74 214 q 3 517 3 408 q 38 723 3 625 q 140 897 74 821 q 211 963 174 933 q 292 1011 249 992 q 476 1054 378 1054 q 742 961 621 1054 q 843 856 800 917 q 913 724 886 796 l 900 718 q 829 851 872 792 q 731 953 786 911 q 610 1017 675 994 q 476 1040 546 1040 q 297 999 381 1040 q 151 887 214 958 q 53 720 89 815 q 17 517 17 625 q 53 313 17 408 q 151 147 89 218 q 297 35 214 76 q 476 -6 381 -6 q 622 22 551 -6 q 750 98 692 49 q 851 216 808 147 q 915 367 894 285 l 929 364 z "},"D":{"ha":872,"x_min":1,"x_max":828,"o":"m 689 901 q 792 727 757 825 q 828 521 828 629 q 792 315 828 413 q 689 142 757 218 q 539 26 624 68 q 354 -15 451 -15 l 1 -10 l 1 1051 l 354 1058 q 539 1015 453 1058 q 689 901 622 976 m 354 -1 q 533 40 450 -1 q 679 151 617 81 q 778 317 742 222 q 814 521 814 413 q 778 724 814 629 q 679 891 742 819 q 533 1003 617 963 q 354 1044 450 1044 l 15 1038 l 15 4 l 354 -1 z "},"E":{"ha":593,"x_min":1,"x_max":549,"o":"m 15 1033 l 15 544 l 549 544 l 549 531 l 15 531 l 15 1 l 549 1 l 549 -12 l 1 -12 l 1 1047 l 549 1044 l 549 1031 l 15 1033 l 15 1033 z "},"F":{"ha":596,"x_min":1,"x_max":547,"o":"m 15 1031 l 15 542 l 547 542 l 547 528 l 15 528 l 15 -8 l 1 -8 l 1 1044 l 547 1042 l 547 1028 l 15 1031 l 15 1031 z "},"G":{"ha":993,"x_min":3,"x_max":929,"o":"m 929 363 l 929 -4 l 915 -4 l 915 318 q 892 263 904 290 q 864 210 879 236 q 761 89 824 142 q 626 8 699 36 q 476 -19 554 -19 q 292 22 379 -19 q 140 138 208 63 q 38 311 74 214 q 3 517 3 408 q 38 723 3 625 q 140 897 74 821 q 211 963 174 933 q 292 1011 249 992 q 476 1054 378 1054 q 615 1031 547 1054 q 742 961 683 1007 q 843 856 800 917 q 913 724 886 796 l 900 718 q 829 851 872 792 q 731 953 786 911 q 610 1017 675 994 q 476 1040 546 1040 q 297 999 381 1040 q 151 887 214 958 q 53 720 89 815 q 17 517 17 625 q 53 313 17 408 q 151 147 89 218 q 297 35 214 76 q 476 -6 381 -6 q 621 22 551 -6 q 749 98 690 49 q 850 215 807 147 q 915 365 893 283 l 915 429 l 482 429 l 482 443 l 929 443 l 929 364 l 929 363 z "},"H":{"ha":607,"x_min":0,"x_max":549,"o":"m 535 1040 l 549 1040 l 549 -6 l 535 -6 l 535 511 l 14 511 l 14 -6 l 0 -6 l 0 1040 l 14 1040 l 14 525 l 535 525 l 535 1040 l 535 1040 z "},"I":{"ha":143,"x_min":32,"x_max":46,"o":"m 46 -6 l 32 -6 l 32 1040 l 46 1040 l 46 -6 l 46 -6 l 46 -6 z "},"J":{"ha":781,"x_min":6,"x_max":713,"o":"m 713 1046 l 713 342 q 685 206 713 271 q 608 92 658 142 q 494 15 558 42 q 358 -12 429 -12 q 224 15 288 -12 q 108 92 160 42 q 32 206 58 142 q 6 342 6 271 l 19 342 q 47 209 19 271 q 119 101 74 147 q 227 28 165 56 q 358 1 289 1 q 491 28 429 1 q 599 101 553 56 q 672 209 644 147 q 699 342 699 271 l 699 1046 l 713 1046 z "},"K":{"ha":815,"x_min":-3,"x_max":783,"o":"m 700 1043 l 11 353 l 11 -6 l -3 -6 l -3 1042 l 11 1042 l 11 372 l 690 1053 l 700 1043 m 217 558 l 783 -8 l 774 -18 l 207 549 l 217 558 z "},"L":{"ha":672,"x_min":-1,"x_max":639,"o":"m 13 15 l 639 15 l 639 1 l -1 1 l -1 1056 l 13 1056 l 13 15 l 13 15 z "},"M":{"ha":1026,"x_min":0,"x_max":968,"o":"m 954 1042 l 968 1039 l 968 6 l 954 6 l 954 1007 l 501 -11 l 14 1011 l 14 -6 l 0 -6 l 0 1042 l 13 1044 l 501 22 l 954 1042 l 954 1042 z "},"N":{"ha":760,"x_min":-1,"x_max":696,"o":"m 682 1038 l 696 1038 l 696 -28 l 13 1014 l 13 -4 l -1 -4 l -1 1061 l 682 19 l 682 1038 l 682 1038 z "},"O":{"ha":1003,"x_min":1,"x_max":947,"o":"m 475 -19 q 290 24 376 -19 q 139 139 207 63 q 37 313 72 215 q 1 518 1 410 q 37 724 1 626 q 139 897 72 821 q 290 1013 207 972 q 475 1054 378 1054 q 658 1013 571 1054 q 810 897 742 972 q 912 724 876 821 q 947 518 947 626 q 912 313 947 410 q 810 139 876 215 q 658 24 742 63 q 475 -19 572 -19 m 475 1040 q 296 999 379 1040 q 150 888 213 958 q 51 722 88 817 q 15 518 15 626 q 51 315 15 410 q 150 148 88 219 q 296 35 213 76 q 475 -6 379 -6 q 653 35 569 -6 q 799 148 736 76 q 897 315 861 219 q 933 518 933 410 q 897 722 933 626 q 799 888 861 817 q 653 999 736 958 q 475 1040 569 1040 z "},"P":{"ha":643,"x_min":0,"x_max":607,"o":"m 518 956 q 584 858 561 913 q 607 742 607 803 q 584 624 607 679 q 518 526 561 569 q 420 460 475 483 q 303 438 365 438 l 14 438 l 14 -11 l 0 -11 l 0 1043 l 303 1044 q 420 1022 365 1044 q 518 956 475 999 m 303 451 q 415 474 363 451 q 508 537 468 497 q 570 629 547 576 q 593 742 593 682 q 570 854 593 801 q 508 946 547 907 q 415 1008 468 985 q 303 1031 363 1031 l 14 1029 l 14 451 l 303 451 z "},"Q":{"ha":1001,"x_min":1,"x_max":947,"o":"m 810 139 q 800 128 804 133 q 790 118 796 124 l 918 -10 l 908 -19 l 781 108 q 658 24 725 54 q 475 -19 572 -19 q 290 24 376 -19 q 139 139 207 63 q 37 313 72 215 q 1 518 1 410 q 37 724 1 626 q 139 897 72 821 q 290 1013 207 972 q 475 1054 378 1054 q 658 1013 571 1054 q 810 897 742 972 q 912 724 876 821 q 947 518 947 626 q 912 313 947 410 q 810 139 876 215 m 475 -6 q 635 27 560 -6 q 771 118 710 60 l 614 275 l 624 285 l 781 128 q 892 300 851 200 q 933 518 933 400 q 897 722 933 626 q 799 888 861 817 q 653 999 736 958 q 475 1040 569 1040 q 296 999 379 1040 q 150 888 213 958 q 51 722 88 817 q 15 518 15 626 q 51 315 15 410 q 150 148 88 219 q 296 35 213 76 q 475 -6 379 -6 z "},"R":{"ha":657,"x_min":1,"x_max":614,"o":"m 525 363 q 591 265 568 319 q 614 149 614 210 l 614 1 l 600 1 l 600 149 q 577 261 600 208 q 515 353 554 314 q 422 415 475 392 q 310 438 369 438 l 304 438 l 15 438 l 15 -11 l 1 -11 l 1 1043 l 304 1044 q 422 1022 367 1044 q 519 956 476 999 q 585 858 563 913 q 608 742 608 803 q 585 624 608 679 q 519 526 563 569 q 372 446 456 464 q 525 363 461 426 m 304 451 q 417 474 364 451 q 509 537 469 497 q 572 629 549 576 q 594 742 594 682 q 572 854 594 801 q 509 946 549 907 q 417 1008 469 985 q 304 1031 364 1031 l 15 1029 l 15 451 l 304 451 z "},"S":{"ha":769,"x_min":1,"x_max":715,"o":"m 353 526 q 485 478 419 503 q 601 423 550 454 q 683 351 651 392 q 715 254 715 310 q 686 132 715 183 q 608 49 661 82 q 358 -12 515 -12 q 223 15 288 -12 q 108 92 158 42 q 31 206 58 142 q 4 342 4 271 l 18 342 q 45 209 18 271 q 118 101 72 147 q 226 28 164 56 q 358 1 288 1 q 601 60 511 1 q 701 254 701 126 q 592 411 701 346 q 478 466 542 442 q 347 513 414 490 q 222 558 283 535 q 111 610 160 582 q 1 765 1 676 q 29 894 1 836 q 107 982 56 946 q 217 1031 154 1014 q 358 1049 281 1049 q 494 1022 429 1049 q 608 944 558 994 q 685 830 658 894 q 711 694 711 765 l 697 694 q 671 827 697 765 q 599 935 644 889 q 491 1008 553 981 q 358 1035 429 1035 q 115 971 207 1035 q 15 765 15 901 q 118 622 15 683 q 228 571 167 594 q 353 526 289 547 z "},"T":{"ha":851,"x_min":6,"x_max":850,"o":"m 850 1043 l 850 1029 l 435 1029 l 435 -8 l 421 -8 l 421 1029 l 6 1029 l 6 1043 l 850 1043 l 850 1043 z "},"U":{"ha":768,"x_min":0,"x_max":707,"o":"m 707 1050 l 707 338 q 680 202 707 267 q 603 88 653 138 q 488 10 553 38 q 353 -17 424 -17 q 218 10 282 -17 q 103 88 154 38 q 26 202 53 138 q 0 338 0 267 l 0 1050 l 14 1050 l 14 338 q 41 205 14 267 q 114 97 68 143 q 222 24 160 51 q 353 -3 283 -3 q 485 24 424 -3 q 593 97 547 51 q 666 205 639 143 q 693 338 693 267 l 693 1050 l 707 1050 z "},"V":{"ha":706,"x_min":-18,"x_max":707,"o":"m 367 -17 l -18 1047 l -4 1051 l 367 26 l 693 1051 l 707 1047 l 367 -17 l 367 -17 l 367 -17 z "},"W":{"ha":1026,"x_min":-12,"x_max":1035,"o":"m 1035 1044 l 694 -19 l 522 457 l 372 -12 l -12 1051 l 1 1056 l 372 31 l 515 478 l 310 1044 l 324 1049 l 522 500 l 699 1056 l 713 1051 l 529 479 l 694 24 l 1021 1049 l 1035 1044 l 1035 1044 z "},"X":{"ha":699,"x_min":-11,"x_max":700,"o":"m 700 0 l 689 -7 l 342 511 l 31 -10 l 19 -3 l 333 524 l -11 1038 l 0 1044 l 340 536 l 644 1044 l 656 1038 l 350 524 l 700 0 l 700 0 z "},"Y":{"ha":631,"x_min":-14,"x_max":621,"o":"m 621 1038 l 347 433 l 347 -10 l 333 -10 l 333 433 l -14 1038 l -3 1044 l 339 450 l 607 1044 l 621 1038 l 621 1038 z "},"Z":{"ha":683,"x_min":-8,"x_max":642,"o":"m 642 1047 l 31 14 l 638 14 l 638 0 l 6 0 l 617 1033 l -8 1033 l -8 1047 l 642 1047 l 642 1047 z "},"!":{"ha":157,"x_min":57,"x_max":71,"o":"m 57 1031 l 71 1031 l 71 225 l 57 225 l 57 1031 m 57 6 l 57 22 l 71 22 l 71 6 l 57 6 z "},"\"":{"ha":194,"x_min":50,"x_max":135,"o":"m 135 871 l 121 871 l 121 1026 l 135 1026 l 135 871 l 135 871 l 135 871 m 64 871 l 50 871 l 50 1026 l 64 1026 l 64 871 l 64 871 l 64 871 z "},"#":{"ha":764,"x_min":8,"x_max":731,"o":"m 731 683 l 604 683 l 604 336 l 714 336 l 714 322 l 604 322 l 604 -4 l 590 -4 l 590 322 l 165 322 l 165 1 l 151 1 l 151 322 l 25 322 l 25 336 l 151 336 l 151 683 l 8 683 l 8 697 l 151 697 l 151 1035 l 165 1035 l 165 697 l 590 697 l 590 1040 l 604 1040 l 604 697 l 731 697 l 731 683 m 590 336 l 590 683 l 165 683 l 165 336 l 590 336 z "},"&":{"ha":758,"x_min":6,"x_max":701,"o":"m 701 515 l 607 515 l 607 292 q 584 177 607 232 q 518 79 561 122 q 422 14 476 36 q 306 -8 367 -8 q 191 14 246 -8 q 93 79 136 36 q 28 177 50 122 q 6 292 6 232 q 108 486 6 425 q 156 508 132 500 q 201 521 181 515 q 117 551 153 529 q 39 629 68 579 q 10 707 15 672 q 6 743 6 742 q 28 859 6 804 q 93 957 50 914 q 191 1022 136 999 q 306 1044 246 1044 q 422 1022 367 1044 q 518 957 476 999 q 584 859 561 914 q 607 743 607 804 l 593 743 q 570 855 593 803 q 508 946 547 907 q 417 1008 469 985 q 306 1031 365 1031 q 195 1008 247 1031 q 104 946 143 985 q 42 855 65 907 q 19 744 19 803 q 24 709 19 742 q 51 636 28 676 q 263 529 114 529 l 279 529 l 701 529 l 701 515 m 593 515 l 264 515 q 250 514 261 514 q 19 292 19 489 q 42 181 19 233 q 103 90 64 129 q 194 28 142 51 q 306 6 246 6 q 417 28 365 6 q 508 90 469 51 q 570 181 547 129 q 593 292 593 233 l 593 515 z "},"'":{"ha":117,"x_min":43,"x_max":57,"o":"m 57 676 l 43 676 l 43 832 l 57 832 l 57 676 l 57 676 l 57 676 z "},"‘":{"ha":103,"x_min":43,"x_max":57,"o":"m 57 676 l 43 676 l 43 832 l 57 832 l 57 676 z "},"’":{"ha":104,"x_min":43,"x_max":57,"o":"m 57 676 l 43 676 l 43 832 l 57 832 l 57 676 z "},"‚":{"ha":113,"x_min":43,"x_max":57,"o":"m 57 -60 l 43 -60 l 43 96 l 57 96 l 57 -60 z "},"(":{"ha":286,"x_min":33,"x_max":261,"o":"m 261 -19 q 173 22 215 -19 q 99 140 131 63 q 50 313 67 215 q 33 517 33 410 q 50 722 33 625 q 99 894 67 818 q 173 1013 131 972 q 261 1054 215 1054 l 261 1040 q 181 1000 221 1040 q 144 953 161 981 q 111 889 126 925 q 63 719 79 814 q 47 517 47 624 q 63 316 47 411 q 111 146 79 221 q 181 33 143 71 q 261 -6 222 -6 l 261 -19 z "},")":{"ha":236,"x_min":-36,"x_max":192,"o":"m -36 -19 l -36 -6 q 44 33 6 -6 q 114 146 85 74 q 162 316 146 221 q 178 517 178 411 q 162 719 178 624 q 114 889 146 814 q 44 1000 85 963 q -36 1040 7 1040 l -36 1054 q 53 1013 11 1054 q 126 894 94 972 q 175 722 158 818 q 192 517 192 625 q 175 313 192 410 q 126 140 158 215 q 53 22 94 63 q -36 -19 11 -19 z "},"*":{"ha":422,"x_min":38,"x_max":368,"o":"m 368 813 l 214 692 l 368 571 l 360 560 l 210 678 l 210 500 l 196 500 l 196 678 l 46 560 l 38 571 l 192 692 l 38 813 l 46 824 l 196 706 l 196 883 l 210 883 l 210 706 l 360 824 l 368 813 l 368 813 z "},"+":{"ha":550,"x_min":25,"x_max":464,"o":"m 464 478 l 464 464 l 251 464 l 251 282 l 238 282 l 238 464 l 25 464 l 25 478 l 238 478 l 238 671 l 251 671 l 251 478 l 464 478 l 464 478 z "},",":{"ha":94,"x_min":-28,"x_max":44,"o":"m -19 -71 l -28 -60 q 8 -18 -4 -42 q 25 27 19 6 q 31 64 31 49 q 31 79 31 79 l 44 79 l 44 63 q 43 45 44 56 q 39 24 42 35 q -19 -71 24 -39 z "},"-":{"ha":450,"x_min":89,"x_max":344,"o":"m 344 442 l 89 442 l 89 456 l 344 456 l 344 442 l 344 442 l 344 442 z "},"–":{"ha":669,"x_min":89,"x_max":594,"o":"m 594 442 l 89 442 l 89 456 l 594 456 l 594 442 z "},"−":{"ha":703,"x_min":89,"x_max":594,"o":"m 594 442 l 89 442 l 89 456 l 594 456 l 594 442 z "},"—":{"ha":1157,"x_min":89,"x_max":1122,"o":"m 1122 442 l 89 442 l 89 456 l 1122 456 l 1122 442 z "},"¬":{"ha":696,"x_min":89,"x_max":594,"o":"m 594 442 l 89 442 l 89 456 l 594 456 l 594 442 m 576 679 l 576 451 l 563 451 l 563 679 l 576 679 z "},"˚":{"ha":321,"x_min":58,"x_max":265,"o":"m 161 747 q 88 777 118 747 q 58 850 58 807 q 88 924 58 894 q 161 954 118 954 q 235 924 206 954 q 265 850 265 894 q 235 777 265 807 q 161 747 206 747 m 161 940 q 99 914 125 940 q 72 850 72 888 q 99 788 72 814 q 161 761 125 761 q 225 788 199 761 q 251 850 251 814 q 225 914 251 888 q 161 940 199 940 z "},"°":{"ha":325,"x_min":58,"x_max":265,"o":"m 161 790 q 88 820 118 790 q 58 893 58 850 q 88 967 58 938 q 161 997 118 997 q 235 967 206 997 q 265 893 265 938 q 235 820 265 850 q 161 790 206 790 m 161 983 q 99 957 125 983 q 72 893 72 931 q 99 831 72 857 q 161 804 125 804 q 225 831 199 804 q 251 893 251 857 q 225 957 251 931 q 161 983 199 983 z "},"˘":{"ha":328,"x_min":58,"x_max":265,"o":"m 161 747 q 88 777 118 747 q 58 850 58 807 l 265 850 q 235 777 265 807 q 161 747 206 747 m 72 850 q 99 788 72 814 q 161 761 125 761 q 225 788 199 761 q 251 850 251 814 l 72 850 z "},"˙":{"ha":188,"x_min":85,"x_max":99,"o":"m 99 921 l 85 921 l 85 949 l 99 949 l 99 921 l 99 921 l 99 921 z "},".":{"ha":146,"x_min":57,"x_max":71,"o":"m 71 18 l 57 18 l 57 46 l 71 46 l 71 18 l 71 18 l 71 18 z "},"…":{"ha":438,"x_min":57,"x_max":363,"o":"m 71 18 l 57 18 l 57 46 l 71 46 l 71 18 l 71 18 l 71 18 m 217 18 l 203 18 l 203 46 l 217 46 l 217 18 l 217 18 l 217 18 m 363 18 l 349 18 l 349 46 l 363 46 l 363 18 l 363 18 l 363 18 z "},"·":{"ha":194,"x_min":85,"x_max":99,"o":"m 99 504 l 85 504 l 85 532 l 99 532 l 99 504 l 99 504 l 99 504 z "},"ı":{"ha":133,"x_min":29,"x_max":43,"o":"m 29 4 l 29 701 l 43 701 l 43 4 l 29 4 l 29 4 z "},"˛":{"ha":246,"x_min":10,"x_max":231,"o":"m 136 -207 q 97 -203 117 -207 q 61 -193 76 -200 q 10 -132 10 -174 q 74 -60 10 -81 q 103 -53 89 -54 q 125 -50 117 -51 l 111 17 l 124 19 l 143 -64 l 133 -64 q 78 -74 103 -67 q 40 -94 57 -81 q 24 -132 24 -107 q 38 -163 24 -151 q 67 -181 51 -175 q 108 -192 85 -189 q 152 -193 131 -194 q 192 -185 174 -192 q 221 -169 210 -179 l 231 -179 q 190 -201 215 -194 q 136 -207 164 -207 z "},"`":{"ha":326,"x_min":50,"x_max":274,"o":"m 268 794 l 50 894 l 56 907 l 274 807 l 268 794 l 268 794 l 268 794 z "},"´":{"ha":332,"x_min":43,"x_max":281,"o":"m 46 797 l 43 811 l 278 878 l 281 864 l 46 797 l 46 797 l 46 797 z "},"¸":{"ha":283,"x_min":24,"x_max":244,"o":"m 118 -207 q 65 -201 90 -207 q 24 -179 39 -194 l 33 -169 q 62 -185 43 -179 q 102 -193 81 -192 q 147 -192 124 -194 q 189 -181 169 -189 q 217 -163 204 -175 q 231 -132 231 -151 q 214 -93 231 -107 q 176 -73 197 -79 q 138 -65 156 -67 q 121 -64 121 -64 l 113 -64 l 131 19 l 144 17 l 129 -50 q 151 -53 138 -51 q 181 -60 165 -54 q 244 -132 244 -81 q 194 -193 244 -174 q 118 -207 163 -207 z "},"˝":{"ha":664,"x_min":43,"x_max":613,"o":"m 46 797 l 43 811 l 278 878 l 281 864 l 46 797 l 46 797 l 46 797 m 378 797 l 375 811 l 610 878 l 613 864 l 378 797 l 378 797 l 378 797 z "},"ˇ":{"ha":372,"x_min":47,"x_max":314,"o":"m 303 932 l 314 924 l 175 750 l 47 924 l 58 932 l 175 772 l 303 932 l 303 932 l 303 932 z "},"^":{"ha":365,"x_min":42,"x_max":308,"o":"m 53 788 l 42 796 l 181 969 l 308 796 l 297 788 l 181 947 l 53 788 z "},"ˆ":{"ha":382,"x_min":42,"x_max":308,"o":"m 53 774 l 42 782 l 181 956 l 308 782 l 297 774 l 181 933 l 53 774 z "},"/":{"ha":396,"x_min":-1,"x_max":379,"o":"m 13 -7 l -1 -1 l 365 1043 l 379 1038 l 13 -7 l 13 -7 l 13 -7 z "},":":{"ha":96,"x_min":26,"x_max":46,"o":"m 40 665 l 26 665 l 26 688 l 40 688 l 40 665 l 40 665 l 40 665 m 46 15 l 32 15 l 32 43 l 46 43 l 46 15 l 46 15 l 46 15 z "},";":{"ha":81,"x_min":-42,"x_max":31,"o":"m -33 -78 l -42 -67 q -6 -25 -18 -49 q 11 20 6 -1 q 17 57 17 42 q 17 72 17 72 l 31 72 l 31 56 q 29 38 31 49 q 25 17 28 28 q -33 -78 10 -46 m 31 661 l 17 661 l 17 689 l 31 689 l 31 661 z "},"<":{"ha":479,"x_min":35,"x_max":426,"o":"m 426 768 l 60 518 l 426 268 l 418 257 l 35 518 l 418 779 l 426 768 l 426 768 z "},"‹":{"ha":469,"x_min":35,"x_max":426,"o":"m 60 518 l 426 268 l 418 257 l 35 518 l 418 779 l 426 768 l 60 518 z "},"«":{"ha":1157,"x_min":35,"x_max":538,"o":"m 60 518 l 426 268 l 418 257 l 35 518 l 418 779 l 426 768 l 60 518 m 171 518 l 538 268 l 529 257 l 146 518 l 529 779 l 538 768 l 171 518 z "},"»":{"ha":597,"x_min":24,"x_max":526,"o":"m 501 518 l 135 768 l 143 779 l 526 518 l 143 257 l 135 268 l 501 518 m 390 518 l 24 768 l 32 779 l 415 518 l 32 257 l 24 268 l 390 518 z "},"›":{"ha":433,"x_min":10,"x_max":401,"o":"m 376 518 l 10 768 l 18 779 l 401 518 l 18 257 l 10 268 l 376 518 z "},">":{"ha":436,"x_min":10,"x_max":401,"o":"m 376 518 l 10 768 l 18 779 l 401 518 l 18 257 l 10 268 l 376 518 z "},"=":{"ha":444,"x_min":89,"x_max":344,"o":"m 344 442 l 89 442 l 89 456 l 344 456 l 344 442 m 344 511 l 89 511 l 89 525 l 344 525 l 344 511 z "},"?":{"ha":746,"x_min":3,"x_max":710,"o":"m 682 814 q 710 678 710 747 q 649 513 710 579 q 587 459 621 482 q 518 415 553 436 q 458 378 488 397 q 407 337 429 360 q 372 285 385 314 q 358 218 358 256 l 344 218 q 397 346 344 293 q 450 389 421 369 q 511 428 479 408 q 578 471 544 449 q 638 522 611 493 q 680 588 664 550 q 696 678 696 625 q 669 808 696 746 q 595 916 642 869 q 487 990 549 963 q 357 1017 425 1017 q 224 990 286 1017 q 117 918 163 964 q 44 810 71 872 q 17 678 17 749 l 3 678 q 30 813 3 749 q 107 928 57 878 q 222 1004 157 978 q 357 1031 286 1031 q 492 1004 428 1031 q 607 926 556 978 q 682 814 654 876 m 350 21 l 364 21 l 364 4 l 350 4 l 350 21 z "},"@":{"ha":831,"x_min":-3,"x_max":799,"o":"m 767 679 q 799 518 799 599 q 788 438 799 474 q 761 378 778 403 q 724 341 744 354 q 682 328 703 328 q 621 364 644 328 q 599 431 606 388 q 517 341 571 375 q 397 307 464 307 q 310 325 351 307 q 239 374 269 343 q 190 445 208 404 q 172 533 172 486 q 190 622 172 581 q 239 693 208 663 q 310 741 269 724 q 397 758 351 758 q 485 741 444 758 q 557 693 526 724 q 606 622 588 663 q 624 533 624 581 q 610 457 624 490 q 633 372 613 403 q 682 342 651 342 q 750 386 722 342 q 774 436 763 404 q 785 518 785 468 q 755 672 785 594 q 673 814 725 750 q 550 918 621 878 q 397 958 479 958 q 247 924 318 958 q 124 829 176 889 q 42 690 72 769 q 11 518 11 610 q 42 347 11 426 q 124 207 72 267 q 247 112 176 147 q 397 76 318 76 q 422 82 400 78 q 476 97 444 86 q 547 133 507 108 q 619 199 586 157 l 631 190 q 553 121 594 146 q 481 85 513 96 q 423 67 446 71 q 399 63 400 64 l 397 63 q 244 97 317 63 q 114 197 172 132 q 27 344 57 261 q -3 518 -3 426 q 27 692 -3 610 q 114 839 57 774 q 244 938 172 904 q 397 972 317 972 q 554 931 479 972 q 682 825 628 892 q 767 679 738 760 m 397 321 q 519 360 467 321 q 596 458 572 399 l 596 472 l 600 472 q 610 533 610 500 q 593 615 610 576 q 548 683 576 654 q 481 728 519 711 q 397 744 442 744 q 315 728 353 744 q 248 683 276 711 q 203 615 219 654 q 186 533 186 576 q 203 451 186 489 q 248 383 219 413 q 315 338 276 354 q 397 321 353 321 z "},"⁄":{"ha":694,"x_min":157,"x_max":538,"o":"m 171 340 l 157 346 l 524 1390 l 538 1385 l 171 340 l 171 340 l 171 340 z "},"ﬁ":{"ha":636,"x_min":1,"x_max":521,"o":"m 504 646 l 518 646 l 518 4 l 504 4 l 504 646 m 261 1049 q 363 1028 315 1049 q 445 973 410 1008 q 501 890 481 938 q 521 789 521 843 l 507 789 q 488 885 507 840 q 435 963 468 929 q 356 1015 401 996 q 261 1035 311 1035 q 165 1015 210 1035 q 88 963 121 996 q 35 885 54 929 q 15 789 15 840 l 15 453 l 271 453 l 271 439 l 15 439 l 15 1 l 1 1 l 1 789 q 22 890 1 843 q 77 973 42 938 q 160 1028 113 1008 q 261 1049 207 1049 m 521 690 l 507 690 l 507 799 l 521 790 l 521 690 z "},"ﬂ":{"ha":626,"x_min":1,"x_max":521,"o":"m 517 -3 l 503 -3 l 503 689 l 517 689 l 517 -3 m 261 1049 q 363 1028 315 1049 q 445 973 410 1008 q 501 890 481 938 q 521 789 521 843 l 507 789 q 488 885 507 840 q 435 963 468 929 q 356 1015 401 996 q 261 1035 311 1035 q 165 1015 210 1035 q 88 963 121 996 q 35 885 54 929 q 15 789 15 840 l 15 453 l 271 453 l 271 439 l 15 439 l 15 1 l 1 1 l 1 789 q 22 890 1 843 q 77 973 42 938 q 160 1028 113 1008 q 261 1049 207 1049 m 521 690 l 507 690 l 507 799 l 521 790 l 521 690 z "},"[":{"ha":256,"x_min":3,"x_max":221,"o":"m 210 -11 l 3 -11 l 3 1047 l 221 1047 l 221 1033 l 17 1033 l 17 3 l 210 3 l 210 -11 l 210 -11 l 210 -11 z "},"\\":{"ha":357,"x_min":-15,"x_max":365,"o":"m 351 -7 l 351 -7 l -15 1038 l -1 1043 l 365 -1 l 351 -7 l 351 -7 z "},"]":{"ha":286,"x_min":-3,"x_max":215,"o":"m 215 -11 l -3 -11 l -3 3 l 201 3 l 201 1033 l 8 1033 l 8 1047 l 215 1047 l 215 -11 l 215 -11 l 215 -11 z "},"_":{"ha":1157,"x_min":61,"x_max":1094,"o":"m 1094 -15 l 61 -15 l 61 -1 l 1094 -1 l 1094 -15 z "},"{":{"ha":261,"x_min":6,"x_max":261,"o":"m 261 -22 q 149 81 186 -22 q 123 181 132 125 q 106 293 114 236 q 92 387 99 342 q 74 467 85 432 q 47 524 64 503 q 6 544 31 544 l 6 558 q 46 576 31 558 q 71 624 61 594 q 86 691 81 653 q 97 769 92 729 q 112 871 103 819 q 138 964 121 922 q 183 1032 154 1006 q 261 1058 213 1058 l 261 1044 q 150 958 185 1044 q 126 868 133 918 q 111 767 118 818 q 101 696 107 731 q 88 632 96 661 q 67 582 79 603 q 35 551 54 561 q 69 515 56 540 q 92 456 82 490 q 108 380 101 421 q 119 296 114 339 q 137 185 128 239 q 161 86 146 131 q 261 -8 196 -8 l 261 -22 z "},"|":{"ha":142,"x_min":57,"x_max":71,"o":"m 71 -110 l 57 -110 l 57 1146 l 71 1146 l 71 -110 l 71 -110 l 71 -110 z "},"}":{"ha":308,"x_min":6,"x_max":261,"o":"m 6 -22 l 6 -8 q 106 86 71 -8 q 130 185 121 131 q 147 296 139 239 q 159 380 153 339 q 175 456 165 421 q 198 515 185 490 q 231 551 211 540 q 199 582 211 561 q 179 632 188 603 q 165 696 171 661 q 156 767 160 731 q 140 868 149 818 q 117 958 132 918 q 6 1044 82 1044 l 6 1058 q 82 1032 53 1058 q 128 964 111 1006 q 154 871 146 922 q 169 769 163 819 q 181 691 175 729 q 196 624 186 653 q 221 576 206 594 q 261 558 236 558 l 261 544 q 219 524 236 544 q 192 467 203 503 q 174 387 182 432 q 161 293 167 342 q 144 181 153 236 q 118 81 135 125 q 6 -22 81 -22 z "},"~":{"ha":506,"x_min":46,"x_max":444,"o":"m 356 471 q 302 478 332 471 q 236 510 272 486 q 103 528 164 556 q 84 515 92 521 q 69 503 76 510 q 57 489 63 496 l 46 497 q 59 513 46 499 q 97 540 72 528 q 124 549 108 546 q 158 551 139 553 q 198 543 176 550 q 244 521 219 536 q 326 488 290 492 q 385 488 361 483 q 406 494 396 490 q 422 501 415 499 q 436 510 429 506 l 444 499 q 429 489 438 494 q 412 481 422 485 q 388 474 401 476 q 373 472 381 472 q 356 471 365 471 z "},"˜":{"ha":496,"x_min":46,"x_max":444,"o":"m 356 818 q 302 826 332 818 q 236 857 272 833 q 103 875 164 903 q 84 863 92 868 q 69 850 76 857 q 57 836 63 843 l 46 844 q 59 860 46 846 q 97 888 72 875 q 124 897 108 893 q 158 899 139 900 q 198 890 176 897 q 244 868 219 883 q 326 835 290 839 q 385 835 361 831 q 406 842 396 838 q 422 849 415 846 q 436 857 429 853 l 444 846 q 429 836 438 842 q 412 828 422 832 q 388 821 401 824 q 373 819 381 819 q 356 818 365 818 z "},"„":{"ha":189,"x_min":50,"x_max":135,"o":"m 135 -46 l 121 -46 l 121 110 l 135 110 l 135 -46 m 64 -46 l 50 -46 l 50 110 l 64 110 l 64 -46 z "},"“":{"ha":194,"x_min":50,"x_max":135,"o":"m 135 801 l 121 801 l 121 957 l 135 957 l 135 801 m 64 801 l 50 801 l 50 957 l 64 957 l 64 801 z "},"”":{"ha":188,"x_min":50,"x_max":135,"o":"m 135 801 l 121 801 l 121 957 l 135 957 l 135 801 m 64 801 l 50 801 l 50 957 l 64 957 l 64 801 z "},"€":{"ha":1029,"x_min":-19,"x_max":954,"o":"m 954 364 q 889 210 933 282 q 786 89 849 142 q 651 8 724 36 q 501 -19 579 -19 q 317 22 404 -19 q 167 138 232 64 q 63 311 99 214 q 28 517 28 408 l 28 538 l -19 538 l -19 551 l 29 551 q 69 738 35 650 q 167 897 104 826 q 317 1011 233 972 q 501 1054 403 1054 q 640 1031 572 1054 q 767 961 708 1007 q 868 856 825 917 q 938 724 911 796 l 925 718 q 854 851 897 792 q 756 953 811 911 q 635 1017 700 994 q 501 1040 571 1040 q 328 1002 410 1040 q 186 898 247 964 q 87 742 125 832 q 43 551 49 653 l 503 551 l 503 538 l 42 538 l 42 517 q 78 313 42 408 q 176 147 114 218 q 322 35 239 76 q 501 -6 406 -6 q 647 22 576 -6 q 775 98 717 49 q 876 216 833 147 q 940 367 919 285 l 954 364 z "},"ƒ":{"ha":503,"x_min":1,"x_max":521,"o":"m 261 1049 q 363 1028 315 1049 q 445 973 410 1008 q 501 890 481 938 q 521 789 521 843 l 507 789 q 488 885 507 840 q 435 963 468 929 q 356 1015 401 996 q 261 1035 311 1035 q 165 1015 210 1035 q 88 963 121 996 q 35 885 54 929 q 15 789 15 840 l 15 453 l 271 453 l 271 439 l 15 439 l 15 1 l 1 1 l 1 789 q 22 890 1 843 q 77 973 42 938 q 160 1028 113 1008 q 261 1049 207 1049 m 521 690 l 507 690 l 507 799 l 521 790 l 521 690 z "},"†":{"ha":694,"x_min":219,"x_max":475,"o":"m 354 -110 l 340 -110 l 340 1146 l 354 1146 l 354 -110 l 354 -110 l 354 -110 m 475 733 l 219 733 l 219 747 l 475 747 l 475 733 l 475 733 l 475 733 z "},"‡":{"ha":694,"x_min":219,"x_max":475,"o":"m 354 -110 l 340 -110 l 340 1146 l 354 1146 l 354 -110 l 354 -110 l 354 -110 m 475 247 l 219 247 l 219 261 l 475 261 l 475 247 m 475 747 l 219 747 l 219 761 l 475 761 l 475 747 z "},"Š":{"ha":769,"x_min":1,"x_max":715,"o":"m 353 526 q 485 478 419 503 q 601 423 550 454 q 683 351 651 392 q 715 254 715 310 q 686 132 715 183 q 608 49 661 82 q 358 -12 515 -12 q 223 15 288 -12 q 108 92 158 42 q 31 206 58 142 q 4 342 4 271 l 18 342 q 45 209 18 271 q 118 101 72 147 q 226 28 164 56 q 358 1 288 1 q 601 60 511 1 q 701 254 701 126 q 592 411 701 346 q 478 466 542 442 q 347 513 414 490 q 222 558 283 535 q 111 610 160 582 q 1 765 1 676 q 29 894 1 836 q 107 982 56 946 q 217 1031 154 1014 q 358 1049 281 1049 q 494 1022 429 1049 q 608 944 558 994 q 685 830 658 894 q 711 694 711 765 l 697 694 q 671 827 697 765 q 599 935 644 889 q 491 1008 553 981 q 358 1035 429 1035 q 115 971 207 1035 q 15 765 15 901 q 118 622 15 683 q 228 571 167 594 q 353 526 289 547 m 507 1279 l 518 1271 l 379 1097 l 251 1271 l 263 1279 l 379 1119 l 507 1279 l 507 1279 l 507 1279 z "},"Œ":{"ha":1539,"x_min":1,"x_max":1482,"o":"m 475 -19 q 290 24 376 -19 q 139 139 207 63 q 37 313 72 215 q 1 518 1 410 q 37 724 1 626 q 139 897 72 821 q 290 1013 207 972 q 475 1054 378 1054 q 658 1013 571 1054 q 810 897 742 972 q 912 724 876 821 q 947 518 947 626 q 912 313 947 410 q 810 139 876 215 q 658 24 742 63 q 475 -19 572 -19 m 475 1040 q 296 999 379 1040 q 150 888 213 958 q 51 722 88 817 q 15 518 15 626 q 51 315 15 410 q 150 148 88 219 q 296 35 213 76 q 475 -6 379 -6 q 653 35 569 -6 q 799 148 736 76 q 897 315 861 219 q 933 518 933 410 q 897 722 933 626 q 799 888 861 817 q 653 999 736 958 q 475 1040 569 1040 m 949 1033 l 949 544 l 1482 544 l 1482 531 l 949 531 l 949 1 l 1482 1 l 1482 -12 l 935 -12 l 935 1047 l 1482 1044 l 1482 1031 l 949 1033 l 949 1033 z "},"™":{"ha":649,"x_min":6,"x_max":581,"o":"m 274 1044 l 274 1040 l 142 1040 l 142 711 l 138 711 l 138 1040 l 6 1040 l 6 1044 l 274 1044 m 576 1043 l 581 1043 l 581 715 l 576 715 l 576 1032 l 432 710 l 278 1033 l 278 711 l 274 711 l 274 1043 l 278 1044 l 432 721 l 576 1043 z "},"š":{"ha":567,"x_min":0,"x_max":519,"o":"m 443 321 q 519 190 519 282 q 442 44 519 94 q 260 0 374 0 q 158 20 206 0 q 76 76 111 40 q 20 158 40 111 q 0 260 0 206 l 14 260 q 33 164 14 208 q 86 86 53 119 q 164 33 119 53 q 260 14 208 14 q 435 57 368 14 q 506 190 506 103 q 436 308 506 274 q 369 332 406 325 q 297 343 332 339 q 282 345 290 344 q 267 347 274 346 q 192 362 235 353 q 110 390 149 371 q 19 513 19 435 q 86 654 19 603 q 260 703 150 703 q 361 683 314 703 q 444 627 408 663 q 499 544 479 592 q 519 443 519 497 l 506 443 q 486 539 506 494 q 433 617 467 583 q 356 669 400 650 q 260 689 311 689 q 93 642 153 689 q 33 513 33 596 q 117 403 33 442 q 195 376 153 385 q 269 361 238 367 q 284 359 276 360 q 300 357 292 358 q 373 344 335 351 q 443 321 411 338 m 406 932 l 417 924 l 278 750 l 150 924 l 161 932 l 278 772 l 406 932 l 406 932 l 406 932 z "},"œ":{"ha":1290,"x_min":0,"x_max":1235,"o":"m 532 594 q 600 480 576 544 q 624 344 624 415 q 600 210 624 274 q 532 96 576 146 q 431 19 488 46 q 311 -8 375 -8 q 192 19 249 -8 q 90 96 135 46 q 23 210 46 146 q 0 344 0 274 q 23 480 0 415 q 90 594 46 544 q 192 672 135 644 q 311 699 249 699 q 431 672 375 699 q 532 594 488 644 m 311 6 q 428 33 374 6 q 522 106 482 60 q 586 213 563 151 q 610 344 610 275 q 586 477 610 415 q 522 585 563 539 q 428 658 482 631 q 311 685 374 685 q 196 658 250 685 q 101 585 142 631 q 38 477 61 539 q 14 344 14 415 q 38 213 14 275 q 101 106 61 151 q 196 33 142 60 q 311 6 250 6 m 628 379 l 1221 379 q 1197 501 1219 444 q 1133 600 1174 558 q 1040 666 1093 642 q 924 690 986 690 q 809 663 863 690 q 715 590 756 636 q 650 481 674 543 q 626 350 626 419 q 650 219 626 281 q 714 111 674 157 q 808 38 754 65 q 924 11 863 11 q 1017 28 972 11 q 1099 75 1061 44 q 1164 148 1136 106 q 1207 243 1192 190 l 1221 239 q 1108 65 1189 133 q 924 -3 1028 -3 q 804 24 861 -3 q 703 101 747 51 q 635 215 658 151 q 613 350 613 279 q 637 485 613 421 q 706 600 661 550 q 804 676 746 649 q 924 704 864 704 q 1042 680 986 704 q 1143 610 1099 656 q 1211 503 1188 564 q 1235 372 1235 442 l 1235 365 l 628 365 l 628 379 z "},"Ž":{"ha":683,"x_min":-8,"x_max":642,"o":"m 642 1047 l 31 14 l 638 14 l 638 0 l 6 0 l 617 1033 l -8 1033 l -8 1047 l 642 1047 l 642 1047 m 464 1279 l 475 1271 l 336 1097 l 208 1271 l 219 1279 l 336 1119 l 464 1279 l 464 1279 l 464 1279 z "},"ž":{"ha":657,"x_min":-6,"x_max":629,"o":"m 629 701 l 25 14 l 606 14 l 606 0 l -6 0 l 599 688 l 0 688 l 0 701 l 629 701 l 629 701 m 450 932 l 461 924 l 322 750 l 194 924 l 206 932 l 322 772 l 450 932 l 450 932 l 450 932 z "},"$":{"ha":769,"x_min":1,"x_max":715,"o":"m 353 526 q 228 571 289 547 q 118 622 167 594 q 15 765 15 683 q 115 971 15 901 q 358 1035 207 1035 q 491 1008 429 1035 q 599 935 553 981 q 671 827 644 889 q 697 694 697 765 l 711 694 q 685 830 711 765 q 608 944 658 894 q 494 1022 558 994 q 358 1049 429 1049 q 217 1031 281 1049 q 107 982 154 1014 q 29 894 56 946 q 1 765 1 836 q 111 610 1 676 q 222 558 160 582 q 347 513 283 535 q 478 466 414 490 q 592 411 542 442 q 701 254 701 346 q 601 60 701 126 q 358 1 511 1 q 226 28 288 1 q 118 101 164 56 q 45 209 72 147 q 18 342 18 271 l 4 342 q 31 206 4 271 q 108 92 58 142 q 223 15 158 42 q 358 -12 288 -12 q 608 49 515 -12 q 686 132 661 82 q 715 254 715 183 q 683 351 715 310 q 601 423 651 392 q 485 478 550 454 q 353 526 419 503 m 392 -110 l 378 -110 l 378 1146 l 392 1146 l 392 -110 z "},"¡":{"ha":157,"x_min":57,"x_max":71,"o":"m 57 -342 l 71 -342 l 71 464 l 57 464 l 57 -342 m 57 683 l 57 667 l 71 667 l 71 683 l 57 683 z "},"¢":{"ha":665,"x_min":6,"x_max":614,"o":"m 317 11 q 201 38 256 11 q 107 111 147 65 q 43 219 67 157 q 19 350 19 281 q 43 483 19 421 q 107 590 67 544 q 201 663 147 636 q 317 690 256 690 q 410 674 365 690 q 492 626 454 657 q 557 553 529 596 q 600 458 585 510 l 614 461 q 501 636 582 568 q 317 704 421 704 q 197 677 254 704 q 96 600 140 650 q 28 485 51 550 q 6 350 6 421 q 28 215 6 279 q 96 101 51 151 q 197 24 140 51 q 317 -3 254 -3 q 501 65 421 -3 q 614 239 582 133 l 600 243 q 557 148 585 190 q 492 75 529 106 q 410 28 454 44 q 317 11 365 11 m 339 -137 l 325 -137 l 325 813 l 339 813 l 339 -137 z "},"£":{"ha":746,"x_min":-22,"x_max":706,"o":"m 351 1026 q 220 1000 282 1026 q 113 928 158 974 q 40 821 67 882 q 13 690 13 760 l 13 460 l 389 460 l 389 446 l 13 446 l 13 13 l 639 13 l 639 -1 l -1 -1 l -1 446 l -22 446 l -22 460 l -1 460 l -1 688 l -1 706 q 28 831 1 772 q 101 938 54 890 q 217 1014 153 988 q 351 1040 281 1040 q 487 1014 422 1040 q 601 938 551 988 q 678 823 651 888 q 706 688 706 758 l 692 688 q 665 820 692 758 q 592 928 638 882 q 484 1000 546 974 q 351 1026 422 1026 z "},"¤":{"ha":649,"x_min":42,"x_max":588,"o":"m 565 510 q 543 403 565 453 q 482 318 521 354 l 550 249 l 540 239 l 471 310 q 394 265 436 281 q 303 249 351 249 q 210 265 254 249 q 132 313 167 282 l 67 247 l 57 257 l 122 322 q 63 406 85 358 q 42 510 42 454 q 63 612 42 564 q 119 695 83 660 q 201 751 154 731 q 303 772 249 772 q 401 753 356 772 q 483 700 447 733 l 578 794 l 588 785 l 493 690 q 546 608 526 654 q 565 510 565 563 m 56 510 q 75 413 56 458 q 128 335 94 368 q 206 282 161 301 q 303 263 251 263 q 399 282 354 263 q 478 335 444 301 q 532 413 513 368 q 551 510 551 458 q 532 606 551 561 q 478 685 513 651 q 399 739 444 719 q 303 758 354 758 q 206 739 251 758 q 128 685 161 719 q 75 606 94 651 q 56 510 56 561 m 107 697 l 44 760 l 54 769 l 117 707 l 107 697 z "},"¥":{"ha":631,"x_min":-14,"x_max":621,"o":"m 621 1038 l 347 433 l 347 -10 l 333 -10 l 333 433 l -14 1038 l -3 1044 l 339 450 l 607 1044 l 621 1038 m 457 289 l 201 289 l 201 303 l 457 303 l 457 289 m 457 358 l 201 358 l 201 372 l 457 372 l 457 358 z "},"§":{"ha":631,"x_min":0,"x_max":519,"o":"m 443 182 q 519 51 519 143 q 442 -94 519 -44 q 260 -139 374 -139 q 158 -119 206 -139 q 76 -63 111 -99 q 20 19 40 -28 q 0 121 0 67 l 14 121 q 33 25 14 69 q 86 -53 53 -19 q 164 -106 119 -86 q 260 -125 208 -125 q 435 -82 368 -125 q 506 51 506 -36 q 436 169 506 135 q 369 193 406 186 q 297 204 332 200 q 282 206 290 206 q 267 208 274 207 q 192 223 235 214 q 110 251 149 232 q 19 374 19 296 q 86 515 19 464 q 260 564 150 564 q 361 544 314 564 q 444 488 408 524 q 499 406 479 453 q 519 304 519 358 l 506 304 q 486 400 506 356 q 433 478 467 444 q 356 531 400 511 q 260 550 311 550 q 93 503 153 550 q 33 374 33 457 q 117 264 33 303 q 195 237 153 246 q 269 222 238 228 q 284 220 276 221 q 300 218 292 219 q 373 206 335 213 q 443 182 411 199 m 443 501 q 519 371 519 463 q 442 225 519 275 q 260 181 374 181 q 158 201 206 181 q 76 256 111 221 q 20 339 40 292 q 0 440 0 386 l 14 440 q 33 344 14 389 q 86 267 53 300 q 164 214 119 233 q 260 194 208 194 q 435 238 368 194 q 506 371 506 283 q 436 489 506 454 q 369 513 406 506 q 297 524 332 519 q 282 526 290 525 q 267 528 274 526 q 192 542 235 533 q 110 571 149 551 q 19 693 19 615 q 86 835 19 783 q 260 883 150 883 q 361 863 314 883 q 444 808 408 843 q 499 725 479 772 q 519 624 519 678 l 506 624 q 486 719 506 675 q 433 797 467 764 q 356 850 400 831 q 260 869 311 869 q 93 823 153 869 q 33 693 33 776 q 117 583 33 622 q 195 556 153 565 q 269 542 238 547 q 284 540 276 540 q 300 538 292 539 q 373 525 335 532 q 443 501 411 518 z "},"¨":{"ha":322,"x_min":78,"x_max":244,"o":"m 92 851 l 78 851 l 78 879 l 92 879 l 92 851 l 92 851 l 92 851 m 244 851 l 231 851 l 231 879 l 244 879 l 244 851 l 244 851 l 244 851 z "},"©":{"ha":778,"x_min":3,"x_max":710,"o":"m 368 319 q 470 358 425 319 q 531 457 515 396 l 544 454 q 479 347 526 389 q 368 306 431 306 q 297 322 331 306 q 239 366 264 338 q 199 432 214 394 q 185 513 185 469 q 199 594 185 556 q 239 660 214 632 q 297 704 264 688 q 368 721 331 721 q 471 686 425 721 q 538 593 517 651 l 525 588 q 463 674 506 642 q 368 707 419 707 q 302 692 333 707 q 248 650 271 676 q 212 588 225 624 q 199 513 199 553 q 212 438 199 472 q 248 376 225 403 q 302 335 271 350 q 368 319 333 319 m 606 767 q 683 652 656 717 q 710 517 710 588 q 683 382 710 446 q 606 267 656 318 q 491 190 556 217 q 356 164 426 164 q 221 190 285 164 q 106 267 157 217 q 29 382 56 318 q 3 517 3 446 q 29 652 3 588 q 106 767 56 717 q 221 844 157 817 q 356 871 285 871 q 491 844 426 871 q 606 767 556 817 m 356 178 q 488 205 426 178 q 596 278 550 232 q 669 385 642 324 q 696 517 696 447 q 669 649 696 588 q 596 757 642 711 q 488 830 550 803 q 356 857 426 857 q 224 830 286 857 q 117 757 163 803 q 44 649 71 711 q 17 517 17 588 q 44 385 17 447 q 117 278 71 324 q 224 205 163 232 q 356 178 286 178 z "},"®":{"ha":756,"x_min":3,"x_max":710,"o":"m 606 767 q 683 652 656 717 q 710 517 710 588 q 683 382 710 446 q 606 267 656 318 q 491 190 556 217 q 356 164 426 164 q 221 190 285 164 q 106 267 157 217 q 29 382 56 318 q 3 517 3 446 q 29 652 3 588 q 106 767 56 717 q 221 844 157 817 q 356 871 285 871 q 491 844 426 871 q 606 767 556 817 m 356 178 q 488 205 426 178 q 596 278 550 232 q 669 385 642 324 q 696 517 696 447 q 669 649 696 588 q 596 757 642 711 q 488 830 550 803 q 356 857 426 857 q 224 830 286 857 q 117 757 163 803 q 44 649 71 711 q 17 517 17 588 q 44 385 17 447 q 117 278 71 324 q 224 205 163 232 q 356 178 286 178 m 500 597 q 478 527 500 557 q 419 485 456 497 q 478 442 456 472 q 500 372 500 411 l 500 317 l 486 317 l 486 372 q 456 447 486 417 q 381 478 425 478 l 275 478 l 275 313 l 261 313 l 261 715 l 381 715 q 427 706 406 715 q 465 681 449 697 q 490 644 481 665 q 500 597 500 622 m 381 492 q 456 522 425 492 q 486 597 486 553 q 456 672 486 642 q 381 701 425 701 l 275 701 l 275 492 l 381 492 z "},"ª":{"ha":331,"x_min":4,"x_max":261,"o":"m 134 1057 q 183 1047 160 1057 q 224 1019 207 1037 q 252 979 241 1002 q 262 929 262 956 l 262 715 l 255 715 l 255 863 q 252 846 254 855 q 248 831 250 838 q 232 791 241 809 q 211 758 222 773 q 161 717 190 732 q 106 704 134 704 q 36 730 64 704 q 5 796 5 756 q 45 867 5 849 q 85 877 63 875 q 131 878 108 878 l 140 878 l 151 878 q 192 880 173 878 q 225 887 211 881 q 247 905 239 893 q 255 938 255 917 q 243 982 253 961 q 216 1018 233 1003 q 179 1042 200 1033 q 134 1050 157 1050 q 86 1041 109 1050 q 47 1015 64 1031 q 21 977 31 999 q 12 929 12 955 l 5 929 q 15 979 5 956 q 42 1019 25 1002 q 83 1047 60 1037 q 134 1057 107 1057 m 205 763 q 254 904 246 813 q 226 881 244 888 q 186 873 209 874 q 140 872 164 872 l 131 872 q 87 870 109 872 q 48 861 65 868 q 12 796 12 844 q 19 763 12 778 q 39 736 27 747 q 69 718 52 724 q 106 711 86 711 q 160 724 135 711 q 205 763 186 738 z "},"²":{"ha":307,"x_min":1,"x_max":238,"o":"m 26 745 q 13 720 16 731 q 8 704 9 709 l 230 704 l 230 700 l 3 700 l 3 702 q 6 716 3 703 q 22 748 10 728 q 38 769 29 759 q 57 789 46 779 q 122 827 83 811 q 168 847 145 837 q 205 871 190 858 q 227 898 220 884 q 234 933 234 913 q 225 973 234 953 q 201 1009 216 993 q 165 1036 186 1025 q 120 1046 144 1046 q 76 1037 97 1046 q 40 1013 56 1028 q 16 977 25 998 q 7 933 7 956 l 2 933 q 11 978 2 956 q 37 1016 20 999 q 75 1042 54 1033 q 120 1051 96 1051 q 167 1040 144 1051 q 204 1013 187 1031 q 218 995 212 1005 q 229 975 225 986 q 238 933 238 954 q 231 897 238 912 q 209 867 224 881 q 170 843 193 854 q 123 823 147 832 q 59 784 82 806 q 26 745 36 763 z "},"³":{"ha":272,"x_min":1,"x_max":200,"o":"m 190 833 q 199 808 198 819 q 201 796 201 796 l 201 795 q 193 757 201 775 q 172 725 186 739 q 140 703 158 711 q 101 696 122 696 q 64 703 82 696 q 31 725 45 711 q 10 757 17 739 q 2 795 2 775 l 7 795 q 14 759 7 776 q 35 729 22 741 q 65 708 48 716 q 101 700 82 700 q 138 708 121 700 q 168 729 156 716 q 189 759 181 741 q 196 795 196 776 q 195 807 196 796 q 186 831 193 818 q 116 866 165 866 l 111 866 l 115 870 q 120 872 115 871 q 196 945 196 880 q 189 982 196 964 q 168 1012 181 999 q 138 1032 156 1025 q 101 1040 121 1040 q 65 1032 82 1040 q 35 1012 48 1025 q 14 982 22 999 q 7 945 7 964 l 2 945 q 10 983 2 965 q 31 1015 17 1001 q 64 1037 45 1029 q 101 1044 82 1044 q 140 1037 122 1044 q 172 1015 158 1029 q 193 983 186 1001 q 201 945 201 965 q 167 881 201 900 q 151 873 159 876 q 136 869 143 871 q 164 859 152 866 q 190 833 180 850 z "},"¹":{"ha":108,"x_min":6,"x_max":43,"o":"m 42 1040 l 44 1040 l 44 697 l 39 697 l 39 1029 l 11 964 l 6 966 l 39 1041 l 42 1040 l 42 1040 z "},"º":{"ha":288,"x_min":0,"x_max":257,"o":"m 220 989 q 249 933 239 965 q 258 866 258 901 q 249 800 258 832 q 220 744 239 769 q 179 706 202 720 q 129 693 155 693 q 79 706 103 693 q 37 744 56 720 q 9 800 19 769 q 0 866 0 832 q 9 933 0 901 q 37 989 19 965 q 79 1027 56 1014 q 129 1040 103 1040 q 179 1027 155 1040 q 220 989 202 1014 m 129 700 q 177 713 155 700 q 216 749 200 727 q 243 802 233 772 q 253 866 253 832 q 243 932 253 901 q 216 984 233 962 q 177 1020 200 1007 q 129 1034 155 1034 q 81 1020 104 1034 q 42 984 59 1007 q 16 932 25 962 q 6 866 6 901 q 16 802 6 832 q 42 749 25 772 q 81 713 59 727 q 129 700 104 700 z "},"¼":{"ha":1190,"x_min":7,"x_max":1122,"o":"m 114 1039 l 121 1039 l 121 -6 l 107 -6 l 107 1006 l 21 808 l 7 814 l 107 1042 l 114 1039 l 114 1039 m 249 -7 l 235 -1 l 601 1043 l 615 1038 l 249 -7 l 249 -7 l 249 -7 m 1108 1038 l 1122 1038 l 1122 -1 l 1108 -1 l 1108 503 l 632 503 l 632 1038 l 646 1038 l 646 517 l 1108 517 l 1108 1038 l 1108 1038 z "},"½":{"ha":1401,"x_min":7,"x_max":1342,"o":"m 114 1039 l 121 1039 l 121 -6 l 107 -6 l 107 1006 l 21 808 l 7 814 l 107 1042 l 114 1039 l 114 1039 m 249 -7 l 235 -1 l 601 1043 l 615 1038 l 249 -7 l 249 -7 l 249 -7 m 704 136 q 666 60 676 93 q 653 13 656 26 l 1317 13 l 1317 -1 l 636 -1 l 638 7 q 647 47 638 8 q 693 143 657 85 q 740 207 714 176 q 799 265 767 238 q 992 382 878 333 q 1130 441 1063 410 q 1243 513 1197 472 q 1308 594 1288 550 q 1328 697 1328 639 q 1301 817 1328 757 q 1229 926 1275 878 q 1122 1006 1183 975 q 988 1038 1060 1038 q 856 1010 918 1038 q 749 938 794 983 q 676 830 703 892 q 649 697 649 768 l 635 697 q 661 833 635 768 q 738 947 688 897 q 853 1024 789 997 q 988 1051 917 1051 q 1126 1019 1058 1051 q 1239 938 1188 990 q 1281 884 1263 913 q 1314 824 1300 856 q 1342 697 1342 760 q 1320 589 1342 636 q 1253 501 1299 542 q 1136 428 1204 461 q 997 368 1068 396 q 805 252 874 317 q 704 136 736 188 z "},"¾":{"ha":1619,"x_min":3,"x_max":1551,"o":"m 571 407 q 599 329 594 364 q 604 293 604 294 l 604 292 q 581 177 604 232 q 517 79 558 122 q 419 14 474 36 q 303 -8 364 -8 q 188 14 243 -8 q 90 79 133 36 q 25 177 47 122 q 3 292 3 232 l 17 292 q 40 181 17 233 q 101 90 63 129 q 192 28 140 51 q 303 6 244 6 q 415 28 363 6 q 506 90 467 51 q 567 181 544 129 q 590 292 590 233 q 585 327 590 294 q 558 400 581 360 q 347 507 496 507 l 331 507 l 343 518 q 358 522 344 521 q 590 743 590 547 q 567 855 590 803 q 506 946 544 907 q 415 1008 467 985 q 303 1031 363 1031 q 192 1008 244 1031 q 101 946 140 985 q 40 855 63 907 q 17 743 17 803 l 3 743 q 25 859 3 804 q 90 957 47 914 q 188 1022 133 999 q 303 1044 243 1044 q 419 1022 364 1044 q 517 957 474 999 q 581 859 558 914 q 604 743 604 804 q 500 550 604 610 q 453 528 476 536 q 408 515 429 519 q 493 485 457 507 q 571 407 542 457 m 678 -7 l 664 -1 l 1031 1043 l 1044 1038 l 678 -7 l 678 -7 l 678 -7 m 1538 1038 l 1551 1038 l 1551 -1 l 1538 -1 l 1538 503 l 1061 503 l 1061 1038 l 1075 1038 l 1075 517 l 1538 517 l 1538 1038 l 1538 1038 z "},"¿":{"ha":746,"x_min":3,"x_max":710,"o":"m 31 -126 q 3 10 3 -60 q 64 175 3 108 q 126 229 92 206 q 194 272 160 251 q 254 309 225 290 q 306 351 283 328 q 341 403 328 374 q 354 469 354 432 l 368 469 q 315 342 368 394 q 263 299 292 318 q 201 260 233 279 q 135 217 168 239 q 75 166 101 194 q 33 100 49 138 q 17 10 17 63 q 44 -120 17 -58 q 117 -228 71 -182 q 226 -302 164 -275 q 356 -329 288 -329 q 488 -303 426 -329 q 596 -230 550 -276 q 669 -123 642 -185 q 696 10 696 -61 l 710 10 q 683 -126 710 -61 q 606 -240 656 -190 q 491 -317 556 -290 q 356 -343 426 -343 q 221 -317 285 -343 q 106 -239 157 -290 q 31 -126 58 -189 m 363 667 l 349 667 l 349 683 l 363 683 l 363 667 z "},"Ł":{"ha":672,"x_min":-82,"x_max":639,"o":"m 13 15 l 639 15 l 639 1 l -1 1 l -1 1056 l 13 1056 l 13 15 l 13 15 m 424 442 l -82 442 l -82 456 l 424 456 l 424 442 z "},"ł":{"ha":124,"x_min":-189,"x_max":317,"o":"m 39 -3 l 25 -3 l 25 1044 l 39 1044 l 39 -3 l 39 -3 l 39 -3 m 317 442 l -189 442 l -189 456 l 317 456 l 317 442 z "},"Ÿ":{"ha":631,"x_min":-14,"x_max":621,"o":"m 621 1038 l 347 433 l 347 -10 l 333 -10 l 333 433 l -14 1038 l -3 1044 l 339 450 l 607 1044 l 621 1038 l 621 1038 m 246 1199 l 232 1199 l 232 1226 l 246 1226 l 246 1199 l 246 1199 l 246 1199 m 399 1199 l 385 1199 l 385 1226 l 399 1226 l 399 1199 l 399 1199 l 399 1199 z "},"À":{"ha":901,"x_min":-8,"x_max":893,"o":"m 879 -14 l 733 329 l 150 329 l 6 -14 l -8 -8 l 442 1049 l 893 -8 l 879 -14 m 157 343 l 728 343 l 442 1013 l 157 343 m 557 1142 l 339 1242 l 344 1254 l 563 1154 l 557 1142 l 557 1142 l 557 1142 z "},"Á":{"ha":901,"x_min":-8,"x_max":893,"o":"m 879 -14 l 733 329 l 150 329 l 6 -14 l -8 -8 l 442 1049 l 893 -8 l 879 -14 m 157 343 l 728 343 l 442 1013 l 157 343 m 335 1144 l 332 1158 l 567 1225 l 569 1211 l 335 1144 l 335 1144 l 335 1144 z "},"Â":{"ha":901,"x_min":-8,"x_max":893,"o":"m 879 -14 l 733 329 l 150 329 l 6 -14 l -8 -8 l 442 1049 l 893 -8 l 879 -14 m 157 343 l 728 343 l 442 1013 l 157 343 m 328 1121 l 317 1129 l 456 1303 l 583 1129 l 572 1121 l 456 1281 l 328 1121 z "},"Ã":{"ha":901,"x_min":-8,"x_max":893,"o":"m 879 -14 l 733 329 l 150 329 l 6 -14 l -8 -8 l 442 1049 l 893 -8 l 879 -14 m 157 343 l 728 343 l 442 1013 l 157 343 m 561 1165 q 508 1173 538 1165 q 442 1204 478 1181 q 308 1222 369 1250 q 290 1210 297 1215 q 275 1197 282 1204 q 263 1183 268 1190 l 251 1192 q 265 1208 251 1193 q 303 1235 278 1222 q 329 1244 314 1240 q 363 1246 344 1247 q 403 1238 382 1244 q 450 1215 425 1231 q 531 1182 496 1186 q 590 1182 567 1178 q 611 1189 601 1185 q 628 1196 621 1193 q 642 1204 635 1200 l 650 1193 q 635 1183 643 1189 q 617 1175 628 1179 q 593 1168 607 1171 q 578 1166 586 1167 q 561 1165 571 1165 z "},"Ä":{"ha":901,"x_min":-8,"x_max":893,"o":"m 879 -14 l 733 329 l 150 329 l 6 -14 l -8 -8 l 442 1049 l 893 -8 l 879 -14 m 157 343 l 728 343 l 442 1013 l 157 343 m 381 1199 l 367 1199 l 367 1226 l 381 1226 l 381 1199 l 381 1199 l 381 1199 m 533 1199 l 519 1199 l 519 1226 l 533 1226 l 533 1199 l 533 1199 l 533 1199 z "},"Å":{"ha":901,"x_min":-8,"x_max":893,"o":"m 879 -14 l 733 329 l 150 329 l 6 -14 l -8 -8 l 442 1049 l 893 -8 l 879 -14 m 157 343 l 728 343 l 442 1013 l 157 343 m 450 1094 q 377 1124 407 1094 q 347 1197 347 1154 q 377 1272 347 1242 q 450 1301 407 1301 q 524 1272 494 1301 q 554 1197 554 1242 q 524 1124 554 1154 q 450 1094 494 1094 m 450 1288 q 388 1261 414 1288 q 361 1197 361 1235 q 388 1135 361 1161 q 450 1108 414 1108 q 514 1135 488 1108 q 540 1197 540 1161 q 514 1261 540 1235 q 450 1288 488 1288 z "},"Æ":{"ha":1249,"x_min":8,"x_max":1175,"o":"m 907 -1 l 1175 -1 l 1175 -15 l 903 -15 l 903 -8 l 896 -11 l 707 433 l 210 433 l 21 -11 l 8 -6 l 454 1042 l 454 1044 l 456 1044 l 458 1051 l 461 1044 l 1171 1044 l 1171 1031 l 467 1031 l 715 447 l 1153 447 l 1153 433 l 722 433 l 907 -1 m 217 447 l 701 447 l 458 1015 l 217 447 z "},"þ":{"ha":649,"x_min":0,"x_max":568,"o":"m 481 593 q 545 481 522 544 q 568 346 568 417 q 545 212 568 275 q 481 100 522 149 q 383 24 438 50 q 268 -3 329 -3 l 17 -3 l 17 11 l 268 11 q 378 38 326 11 q 469 109 431 64 q 531 215 508 154 q 554 346 554 276 q 531 476 554 415 q 469 583 508 538 q 378 656 431 629 q 268 682 326 682 l 14 686 l 14 -361 l 0 -361 l 0 1036 l 14 1036 l 14 693 l 14 700 l 268 696 q 383 669 329 696 q 481 593 438 643 z "},"Þ":{"ha":722,"x_min":1,"x_max":663,"o":"m 558 746 q 635 631 608 696 q 663 496 663 567 q 635 361 663 425 q 558 246 608 297 q 444 169 508 196 q 308 143 379 143 l 15 143 l 15 -3 l 1 -3 l 1 1039 l 15 1039 l 15 854 l 308 850 q 444 823 379 850 q 558 746 508 796 m 308 157 q 441 184 379 157 q 549 257 503 211 q 622 365 594 303 q 649 496 649 426 q 622 628 649 567 q 549 736 594 690 q 441 809 503 782 q 308 836 379 836 l 15 840 l 15 157 l 308 157 z "},"ß":{"ha":765,"x_min":1,"x_max":710,"o":"m 661 525 q 564 414 622 454 q 408 364 500 371 q 470 324 431 350 q 550 263 510 297 q 689 54 710 133 q 607 -14 676 10 q 385 -39 529 -39 l 385 -25 q 603 0 528 -25 q 675 57 664 21 q 542 253 694 128 q 484 297 513 276 q 433 332 456 317 q 396 356 410 347 q 382 365 382 365 l 360 378 l 385 378 q 649 532 567 378 q 673 587 664 560 q 687 636 682 614 q 693 672 692 658 q 694 688 694 686 q 667 819 694 757 q 594 926 640 881 q 487 999 549 972 q 354 1026 425 1026 q 223 1000 285 1026 q 115 928 161 974 q 42 821 69 882 q 15 690 15 760 l 15 4 l 1 4 l 1 686 l 1 688 l 1 704 q 31 830 4 771 q 104 936 58 889 q 219 1013 156 986 q 354 1040 283 1040 q 490 1013 425 1040 q 604 936 554 986 q 681 822 654 886 q 708 686 708 757 q 707 671 708 685 q 701 635 706 657 q 686 584 696 613 q 661 525 676 556 z "},"Ç":{"ha":974,"x_min":3,"x_max":929,"o":"m 929 364 q 864 210 908 282 q 761 89 824 142 q 626 8 699 36 q 476 -19 554 -19 q 292 22 379 -19 q 140 138 208 63 q 38 311 74 214 q 3 517 3 408 q 38 723 3 625 q 140 897 74 821 q 211 963 174 933 q 292 1011 249 992 q 476 1054 378 1054 q 742 961 621 1054 q 843 856 800 917 q 913 724 886 796 l 900 718 q 829 851 872 792 q 731 953 786 911 q 610 1017 675 994 q 476 1040 546 1040 q 297 999 381 1040 q 151 887 214 958 q 53 720 89 815 q 17 517 17 625 q 53 313 17 408 q 151 147 89 218 q 297 35 214 76 q 476 -6 381 -6 q 622 22 551 -6 q 750 98 692 49 q 851 216 808 147 q 915 367 894 285 l 929 364 m 471 -244 q 417 -238 443 -244 q 376 -217 392 -232 l 386 -207 q 415 -223 396 -217 q 455 -231 433 -229 q 499 -229 476 -232 q 542 -218 522 -226 q 570 -201 557 -212 q 583 -169 583 -189 q 567 -131 583 -144 q 529 -110 550 -117 q 491 -103 508 -104 q 474 -101 474 -101 l 465 -101 l 483 -18 l 497 -21 l 482 -87 q 504 -90 490 -89 q 533 -97 518 -92 q 597 -169 597 -118 q 547 -231 597 -211 q 471 -244 515 -244 z "},"ç":{"ha":665,"x_min":6,"x_max":614,"o":"m 317 11 q 410 28 365 11 q 492 75 454 44 q 557 148 529 106 q 600 243 585 190 l 614 239 q 501 65 582 133 q 317 -3 421 -3 q 197 24 254 -3 q 96 101 140 51 q 28 215 51 151 q 6 350 6 279 q 28 485 6 421 q 96 600 51 550 q 197 677 140 650 q 317 704 254 704 q 501 636 421 704 q 614 461 582 568 l 600 458 q 557 553 585 510 q 492 626 529 596 q 410 674 454 657 q 317 690 365 690 q 201 663 256 690 q 107 590 147 636 q 43 483 67 544 q 19 350 19 421 q 43 219 19 281 q 107 111 67 157 q 201 38 147 65 q 317 11 256 11 m 315 -233 q 262 -227 288 -233 q 221 -206 236 -221 l 231 -196 q 259 -212 240 -206 q 299 -219 278 -218 q 344 -218 321 -221 q 386 -207 367 -215 q 415 -190 401 -201 q 428 -158 428 -178 q 411 -119 428 -133 q 374 -99 394 -106 q 335 -92 353 -93 q 318 -90 318 -90 l 310 -90 l 328 -7 l 342 -10 l 326 -76 q 349 -79 335 -78 q 378 -86 363 -81 q 442 -158 442 -107 q 392 -219 442 -200 q 315 -233 360 -233 z "},"È":{"ha":593,"x_min":1,"x_max":549,"o":"m 15 1033 l 15 544 l 549 544 l 549 531 l 15 531 l 15 1 l 549 1 l 549 -12 l 1 -12 l 1 1047 l 549 1044 l 549 1031 l 15 1033 l 15 1033 m 403 1142 l 185 1242 l 190 1254 l 408 1154 l 403 1142 l 403 1142 l 403 1142 z "},"É":{"ha":593,"x_min":1,"x_max":549,"o":"m 15 1033 l 15 544 l 549 544 l 549 531 l 15 531 l 15 1 l 549 1 l 549 -12 l 1 -12 l 1 1047 l 549 1044 l 549 1031 l 15 1033 l 15 1033 m 181 1144 l 178 1158 l 413 1225 l 415 1211 l 181 1144 l 181 1144 l 181 1144 z "},"Ê":{"ha":593,"x_min":1,"x_max":549,"o":"m 15 1033 l 15 544 l 549 544 l 549 531 l 15 531 l 15 1 l 549 1 l 549 -12 l 1 -12 l 1 1047 l 549 1044 l 549 1031 l 15 1033 l 15 1033 m 174 1121 l 163 1129 l 301 1303 l 429 1129 l 418 1121 l 301 1281 l 174 1121 z "},"Ë":{"ha":593,"x_min":1,"x_max":549,"o":"m 15 1033 l 15 544 l 549 544 l 549 531 l 15 531 l 15 1 l 549 1 l 549 -12 l 1 -12 l 1 1047 l 549 1044 l 549 1031 l 15 1033 l 15 1033 m 226 1199 l 213 1199 l 213 1226 l 226 1226 l 226 1199 l 226 1199 l 226 1199 m 379 1199 l 365 1199 l 365 1226 l 379 1226 l 379 1199 l 379 1199 l 379 1199 z "},"Ì":{"ha":143,"x_min":-39,"x_max":185,"o":"m 46 -6 l 32 -6 l 32 1040 l 46 1040 l 46 -6 l 46 -6 l 46 -6 m 179 1142 l -39 1242 l -33 1254 l 185 1154 l 179 1142 l 179 1142 l 179 1142 z "},"Í":{"ha":143,"x_min":-46,"x_max":192,"o":"m 46 -6 l 32 -6 l 32 1040 l 46 1040 l 46 -6 l 46 -6 l 46 -6 m -43 1144 l -46 1158 l 189 1225 l 192 1211 l -43 1144 l -43 1144 l -43 1144 z "},"Î":{"ha":143,"x_min":-60,"x_max":207,"o":"m 46 -6 l 32 -6 l 32 1040 l 46 1040 l 46 -6 l 46 -6 l 46 -6 m -49 1121 l -60 1129 l 79 1303 l 207 1129 l 196 1121 l 79 1281 l -49 1121 z "},"Ï":{"ha":143,"x_min":-10,"x_max":157,"o":"m 46 -6 l 32 -6 l 32 1040 l 46 1040 l 46 -6 l 46 -6 l 46 -6 m 4 1199 l -10 1199 l -10 1226 l 4 1226 l 4 1199 l 4 1199 l 4 1199 m 157 1199 l 143 1199 l 143 1226 l 157 1226 l 157 1199 l 157 1199 l 157 1199 z "},"Ð":{"ha":872,"x_min":-39,"x_max":828,"o":"m 689 901 q 792 727 757 825 q 828 521 828 629 q 792 315 828 413 q 689 142 757 218 q 539 26 624 68 q 354 -15 451 -15 l 1 -10 l 1 1051 l 354 1058 q 539 1015 453 1058 q 689 901 622 976 m 354 -1 q 533 40 450 -1 q 679 151 617 81 q 778 317 742 222 q 814 521 814 413 q 778 724 814 629 q 679 891 742 819 q 533 1003 617 963 q 354 1044 450 1044 l 15 1038 l 15 4 l 354 -1 m 217 500 l -39 500 l -39 514 l 217 514 l 217 500 z "},"Ñ":{"ha":760,"x_min":-1,"x_max":696,"o":"m 682 1038 l 696 1038 l 696 -28 l 13 1014 l 13 -4 l -1 -4 l -1 1061 l 682 19 l 682 1038 l 682 1038 m 490 1165 q 437 1173 467 1165 q 371 1204 407 1181 q 238 1222 299 1250 q 219 1210 226 1215 q 204 1197 211 1204 q 192 1183 197 1190 l 181 1192 q 194 1208 181 1193 q 232 1235 207 1222 q 258 1244 243 1240 q 292 1246 274 1247 q 333 1238 311 1244 q 379 1215 354 1231 q 460 1182 425 1186 q 519 1182 496 1178 q 540 1189 531 1185 q 557 1196 550 1193 q 571 1204 564 1200 l 579 1193 q 564 1183 572 1189 q 547 1175 557 1179 q 522 1168 536 1171 q 508 1166 515 1167 q 490 1165 500 1165 z "},"Ò":{"ha":1003,"x_min":1,"x_max":947,"o":"m 475 -19 q 290 24 376 -19 q 139 139 207 63 q 37 313 72 215 q 1 518 1 410 q 37 724 1 626 q 139 897 72 821 q 290 1013 207 972 q 475 1054 378 1054 q 658 1013 571 1054 q 810 897 742 972 q 912 724 876 821 q 947 518 947 626 q 912 313 947 410 q 810 139 876 215 q 658 24 742 63 q 475 -19 572 -19 m 475 1040 q 296 999 379 1040 q 150 888 213 958 q 51 722 88 817 q 15 518 15 626 q 51 315 15 410 q 150 148 88 219 q 296 35 213 76 q 475 -6 379 -6 q 653 35 569 -6 q 799 148 736 76 q 897 315 861 219 q 933 518 933 410 q 897 722 933 626 q 799 888 861 817 q 653 999 736 958 q 475 1040 569 1040 m 607 1142 l 389 1242 l 394 1254 l 613 1154 l 607 1142 l 607 1142 l 607 1142 z "},"Ó":{"ha":1003,"x_min":1,"x_max":947,"o":"m 475 -19 q 290 24 376 -19 q 139 139 207 63 q 37 313 72 215 q 1 518 1 410 q 37 724 1 626 q 139 897 72 821 q 290 1013 207 972 q 475 1054 378 1054 q 658 1013 571 1054 q 810 897 742 972 q 912 724 876 821 q 947 518 947 626 q 912 313 947 410 q 810 139 876 215 q 658 24 742 63 q 475 -19 572 -19 m 475 1040 q 296 999 379 1040 q 150 888 213 958 q 51 722 88 817 q 15 518 15 626 q 51 315 15 410 q 150 148 88 219 q 296 35 213 76 q 475 -6 379 -6 q 653 35 569 -6 q 799 148 736 76 q 897 315 861 219 q 933 518 933 410 q 897 722 933 626 q 799 888 861 817 q 653 999 736 958 q 475 1040 569 1040 m 385 1144 l 382 1158 l 617 1225 l 619 1211 l 385 1144 l 385 1144 l 385 1144 z "},"Ô":{"ha":1003,"x_min":1,"x_max":947,"o":"m 475 -19 q 290 24 376 -19 q 139 139 207 63 q 37 313 72 215 q 1 518 1 410 q 37 724 1 626 q 139 897 72 821 q 290 1013 207 972 q 475 1054 378 1054 q 658 1013 571 1054 q 810 897 742 972 q 912 724 876 821 q 947 518 947 626 q 912 313 947 410 q 810 139 876 215 q 658 24 742 63 q 475 -19 572 -19 m 475 1040 q 296 999 379 1040 q 150 888 213 958 q 51 722 88 817 q 15 518 15 626 q 51 315 15 410 q 150 148 88 219 q 296 35 213 76 q 475 -6 379 -6 q 653 35 569 -6 q 799 148 736 76 q 897 315 861 219 q 933 518 933 410 q 897 722 933 626 q 799 888 861 817 q 653 999 736 958 q 475 1040 569 1040 m 379 1121 l 368 1129 l 507 1303 l 635 1129 l 624 1121 l 507 1281 l 379 1121 z "},"Õ":{"ha":1003,"x_min":1,"x_max":947,"o":"m 475 -19 q 290 24 376 -19 q 139 139 207 63 q 37 313 72 215 q 1 518 1 410 q 37 724 1 626 q 139 897 72 821 q 290 1013 207 972 q 475 1054 378 1054 q 658 1013 571 1054 q 810 897 742 972 q 912 724 876 821 q 947 518 947 626 q 912 313 947 410 q 810 139 876 215 q 658 24 742 63 q 475 -19 572 -19 m 475 1040 q 296 999 379 1040 q 150 888 213 958 q 51 722 88 817 q 15 518 15 626 q 51 315 15 410 q 150 148 88 219 q 296 35 213 76 q 475 -6 379 -6 q 653 35 569 -6 q 799 148 736 76 q 897 315 861 219 q 933 518 933 410 q 897 722 933 626 q 799 888 861 817 q 653 999 736 958 q 475 1040 569 1040 m 611 1165 q 558 1173 588 1165 q 492 1204 528 1181 q 358 1222 419 1250 q 340 1210 347 1215 q 325 1197 332 1204 q 313 1183 318 1190 l 301 1192 q 315 1208 301 1193 q 353 1235 328 1222 q 379 1244 364 1240 q 413 1246 394 1247 q 453 1238 432 1244 q 500 1215 475 1231 q 581 1182 546 1186 q 640 1182 617 1178 q 661 1189 651 1185 q 678 1196 671 1193 q 692 1204 685 1200 l 700 1193 q 685 1183 693 1189 q 667 1175 678 1179 q 643 1168 657 1171 q 628 1166 636 1167 q 611 1165 621 1165 z "},"Ö":{"ha":1003,"x_min":1,"x_max":947,"o":"m 475 -19 q 290 24 376 -19 q 139 139 207 63 q 37 313 72 215 q 1 518 1 410 q 37 724 1 626 q 139 897 72 821 q 290 1013 207 972 q 475 1054 378 1054 q 658 1013 571 1054 q 810 897 742 972 q 912 724 876 821 q 947 518 947 626 q 912 313 947 410 q 810 139 876 215 q 658 24 742 63 q 475 -19 572 -19 m 475 1040 q 296 999 379 1040 q 150 888 213 958 q 51 722 88 817 q 15 518 15 626 q 51 315 15 410 q 150 148 88 219 q 296 35 213 76 q 475 -6 379 -6 q 653 35 569 -6 q 799 148 736 76 q 897 315 861 219 q 933 518 933 410 q 897 722 933 626 q 799 888 861 817 q 653 999 736 958 q 475 1040 569 1040 m 432 1199 l 418 1199 l 418 1226 l 432 1226 l 432 1199 l 432 1199 l 432 1199 m 585 1199 l 571 1199 l 571 1226 l 585 1226 l 585 1199 l 585 1199 l 585 1199 z "},"Ø":{"ha":1003,"x_min":1,"x_max":947,"o":"m 475 -19 q 290 24 376 -19 q 139 139 207 63 q 37 313 72 215 q 1 518 1 410 q 37 724 1 626 q 139 897 72 821 q 290 1013 207 972 q 475 1054 378 1054 q 658 1013 571 1054 q 810 897 742 972 q 912 724 876 821 q 947 518 947 626 q 912 313 947 410 q 810 139 876 215 q 658 24 742 63 q 475 -19 572 -19 m 475 1040 q 296 999 379 1040 q 150 888 213 958 q 51 722 88 817 q 15 518 15 626 q 51 315 15 410 q 150 148 88 219 q 296 35 213 76 q 475 -6 379 -6 q 653 35 569 -6 q 799 148 736 76 q 897 315 861 219 q 933 518 933 410 q 897 722 933 626 q 799 888 861 817 q 653 999 736 958 q 475 1040 569 1040 m 325 -7 l 311 -1 l 678 1043 l 692 1038 l 325 -7 l 325 -7 l 325 -7 z "},"ø":{"ha":681,"x_min":0,"x_max":624,"o":"m 532 594 q 600 480 576 544 q 624 344 624 415 q 600 210 624 274 q 532 96 576 146 q 431 19 488 46 q 311 -8 375 -8 q 192 19 249 -8 q 90 96 135 46 q 23 210 46 146 q 0 344 0 274 q 23 480 0 415 q 90 594 46 544 q 192 672 135 644 q 311 699 249 699 q 431 672 375 699 q 532 594 488 644 m 311 6 q 428 33 374 6 q 522 106 482 60 q 586 213 563 151 q 610 344 610 275 q 586 477 610 415 q 522 585 563 539 q 428 658 482 631 q 311 685 374 685 q 196 658 250 685 q 101 585 142 631 q 38 477 61 539 q 14 344 14 415 q 38 213 14 275 q 101 106 61 151 q 196 33 142 60 q 311 6 250 6 m 165 -6 l 150 -2 l 554 680 l 569 677 l 165 -6 l 165 -6 l 165 -6 z "},"Ù":{"ha":768,"x_min":0,"x_max":707,"o":"m 707 1050 l 707 338 q 680 202 707 267 q 603 88 653 138 q 488 10 553 38 q 353 -17 424 -17 q 218 10 282 -17 q 103 88 154 38 q 26 202 53 138 q 0 338 0 267 l 0 1050 l 14 1050 l 14 338 q 41 205 14 267 q 114 97 68 143 q 222 24 160 51 q 353 -3 283 -3 q 485 24 424 -3 q 593 97 547 51 q 666 205 639 143 q 693 338 693 267 l 693 1050 l 707 1050 m 490 1142 l 272 1242 l 278 1254 l 496 1154 l 490 1142 l 490 1142 l 490 1142 z "},"Ú":{"ha":768,"x_min":0,"x_max":707,"o":"m 707 1050 l 707 338 q 680 202 707 267 q 603 88 653 138 q 488 10 553 38 q 353 -17 424 -17 q 218 10 282 -17 q 103 88 154 38 q 26 202 53 138 q 0 338 0 267 l 0 1050 l 14 1050 l 14 338 q 41 205 14 267 q 114 97 68 143 q 222 24 160 51 q 353 -3 283 -3 q 485 24 424 -3 q 593 97 547 51 q 666 205 639 143 q 693 338 693 267 l 693 1050 l 707 1050 m 268 1144 l 265 1158 l 500 1225 l 503 1211 l 268 1144 l 268 1144 l 268 1144 z "},"Û":{"ha":768,"x_min":0,"x_max":707,"o":"m 707 1050 l 707 338 q 680 202 707 267 q 603 88 653 138 q 488 10 553 38 q 353 -17 424 -17 q 218 10 282 -17 q 103 88 154 38 q 26 202 53 138 q 0 338 0 267 l 0 1050 l 14 1050 l 14 338 q 41 205 14 267 q 114 97 68 143 q 222 24 160 51 q 353 -3 283 -3 q 485 24 424 -3 q 593 97 547 51 q 666 205 639 143 q 693 338 693 267 l 693 1050 l 707 1050 m 261 1121 l 250 1129 l 389 1303 l 517 1129 l 506 1121 l 389 1281 l 261 1121 z "},"Ü":{"ha":768,"x_min":0,"x_max":707,"o":"m 707 1050 l 707 338 q 680 202 707 267 q 603 88 653 138 q 488 10 553 38 q 353 -17 424 -17 q 218 10 282 -17 q 103 88 154 38 q 26 202 53 138 q 0 338 0 267 l 0 1050 l 14 1050 l 14 338 q 41 205 14 267 q 114 97 68 143 q 222 24 160 51 q 353 -3 283 -3 q 485 24 424 -3 q 593 97 547 51 q 666 205 639 143 q 693 338 693 267 l 693 1050 l 707 1050 m 314 1199 l 300 1199 l 300 1226 l 314 1226 l 314 1199 l 314 1199 l 314 1199 m 467 1199 l 453 1199 l 453 1226 l 467 1226 l 467 1199 l 467 1199 l 467 1199 z "},"Ý":{"ha":631,"x_min":-14,"x_max":621,"o":"m 621 1038 l 347 433 l 347 -10 l 333 -10 l 333 433 l -14 1038 l -3 1044 l 339 450 l 607 1044 l 621 1038 l 621 1038 m 199 1144 l 196 1158 l 431 1225 l 433 1211 l 199 1144 l 199 1144 l 199 1144 z "},"ý":{"ha":683,"x_min":1,"x_max":626,"o":"m 626 704 l 626 -39 q 603 -158 626 -101 q 536 -260 581 -215 q 435 -328 492 -304 q 315 -351 378 -351 q 196 -328 253 -351 q 94 -260 139 -304 q 26 -158 50 -215 q 3 -39 3 -101 l 17 -39 q 40 -156 17 -101 q 104 -250 64 -210 q 199 -314 144 -290 q 315 -337 253 -337 q 431 -314 376 -337 q 525 -250 485 -290 q 589 -156 565 -210 q 613 -39 613 -101 l 613 247 q 535 97 592 160 q 433 20 490 47 q 314 -7 376 -7 q 194 20 251 -7 q 93 97 138 47 q 25 211 49 147 q 1 346 1 275 l 1 693 l 15 693 l 15 346 q 39 215 15 276 q 103 107 63 153 q 198 34 143 61 q 314 7 253 7 q 429 34 375 7 q 524 107 483 61 q 588 215 564 153 q 611 346 611 276 l 613 346 l 613 704 l 626 704 m 225 797 l 222 811 l 457 878 l 460 864 l 225 797 l 225 797 l 225 797 z "},"ÿ":{"ha":683,"x_min":1,"x_max":626,"o":"m 626 704 l 626 -39 q 603 -158 626 -101 q 536 -260 581 -215 q 435 -328 492 -304 q 315 -351 378 -351 q 196 -328 253 -351 q 94 -260 139 -304 q 26 -158 50 -215 q 3 -39 3 -101 l 17 -39 q 40 -156 17 -101 q 104 -250 64 -210 q 199 -314 144 -290 q 315 -337 253 -337 q 431 -314 376 -337 q 525 -250 485 -290 q 589 -156 565 -210 q 613 -39 613 -101 l 613 247 q 535 97 592 160 q 433 20 490 47 q 314 -7 376 -7 q 194 20 251 -7 q 93 97 138 47 q 25 211 49 147 q 1 346 1 275 l 1 693 l 15 693 l 15 346 q 39 215 15 276 q 103 107 63 153 q 198 34 143 61 q 314 7 253 7 q 429 34 375 7 q 524 107 483 61 q 588 215 564 153 q 611 346 611 276 l 613 346 l 613 704 l 626 704 m 272 851 l 258 851 l 258 879 l 272 879 l 272 851 l 272 851 l 272 851 m 425 851 l 411 851 l 411 879 l 425 879 l 425 851 l 425 851 l 425 851 z "},"ü":{"ha":678,"x_min":0,"x_max":624,"o":"m 624 700 l 624 354 q 601 219 624 283 q 533 106 578 156 q 432 28 489 54 q 313 1 375 1 q 193 28 250 1 q 92 106 136 54 q 24 219 47 156 q 0 354 0 283 l 0 700 l 14 700 l 14 354 q 38 223 14 285 q 101 115 61 161 q 197 42 142 69 q 313 15 251 15 q 428 42 374 15 q 522 115 482 69 q 586 223 563 161 q 610 354 610 285 l 610 700 l 624 700 m 269 851 l 256 851 l 256 879 l 269 879 l 269 851 l 269 851 l 269 851 m 422 851 l 408 851 l 408 879 l 422 879 l 422 851 l 422 851 l 422 851 z "},"û":{"ha":678,"x_min":0,"x_max":624,"o":"m 624 700 l 624 354 q 601 219 624 283 q 533 106 578 156 q 432 28 489 54 q 313 1 375 1 q 193 28 250 1 q 92 106 136 54 q 24 219 47 156 q 0 354 0 283 l 0 700 l 14 700 l 14 354 q 38 223 14 285 q 101 115 61 161 q 197 42 142 69 q 313 15 251 15 q 428 42 374 15 q 522 115 482 69 q 586 223 563 161 q 610 354 610 285 l 610 700 l 624 700 m 217 774 l 206 782 l 344 956 l 472 782 l 461 774 l 344 933 l 217 774 z "},"ú":{"ha":678,"x_min":0,"x_max":624,"o":"m 624 700 l 624 354 q 601 219 624 283 q 533 106 578 156 q 432 28 489 54 q 313 1 375 1 q 193 28 250 1 q 92 106 136 54 q 24 219 47 156 q 0 354 0 283 l 0 700 l 14 700 l 14 354 q 38 223 14 285 q 101 115 61 161 q 197 42 142 69 q 313 15 251 15 q 428 42 374 15 q 522 115 482 69 q 586 223 563 161 q 610 354 610 285 l 610 700 l 624 700 m 222 797 l 219 811 l 454 878 l 457 864 l 222 797 l 222 797 l 222 797 z "},"ù":{"ha":678,"x_min":0,"x_max":624,"o":"m 624 700 l 624 354 q 601 219 624 283 q 533 106 578 156 q 432 28 489 54 q 313 1 375 1 q 193 28 250 1 q 92 106 136 54 q 24 219 47 156 q 0 354 0 283 l 0 700 l 14 700 l 14 354 q 38 223 14 285 q 101 115 61 161 q 197 42 142 69 q 313 15 251 15 q 428 42 374 15 q 522 115 482 69 q 586 223 563 161 q 610 354 610 285 l 610 700 l 624 700 m 444 794 l 226 894 l 232 907 l 450 807 l 444 794 l 444 794 l 444 794 z "},"ö":{"ha":681,"x_min":0,"x_max":624,"o":"m 532 594 q 600 480 576 544 q 624 344 624 415 q 600 210 624 274 q 532 96 576 146 q 431 19 488 46 q 311 -8 375 -8 q 192 19 249 -8 q 90 96 135 46 q 23 210 46 146 q 0 344 0 274 q 23 480 0 415 q 90 594 46 544 q 192 672 135 644 q 311 699 249 699 q 431 672 375 699 q 532 594 488 644 m 311 6 q 428 33 374 6 q 522 106 482 60 q 586 213 563 151 q 610 344 610 275 q 586 477 610 415 q 522 585 563 539 q 428 658 482 631 q 311 685 374 685 q 196 658 250 685 q 101 585 142 631 q 38 477 61 539 q 14 344 14 415 q 38 213 14 275 q 101 106 61 151 q 196 33 142 60 q 311 6 250 6 m 271 851 l 257 851 l 257 879 l 271 879 l 271 851 l 271 851 l 271 851 m 424 851 l 410 851 l 410 879 l 424 879 l 424 851 l 424 851 l 424 851 z "},"õ":{"ha":681,"x_min":0,"x_max":624,"o":"m 532 594 q 600 480 576 544 q 624 344 624 415 q 600 210 624 274 q 532 96 576 146 q 431 19 488 46 q 311 -8 375 -8 q 192 19 249 -8 q 90 96 135 46 q 23 210 46 146 q 0 344 0 274 q 23 480 0 415 q 90 594 46 544 q 192 672 135 644 q 311 699 249 699 q 431 672 375 699 q 532 594 488 644 m 311 6 q 428 33 374 6 q 522 106 482 60 q 586 213 563 151 q 610 344 610 275 q 586 477 610 415 q 522 585 563 539 q 428 658 482 631 q 311 685 374 685 q 196 658 250 685 q 101 585 142 631 q 38 477 61 539 q 14 344 14 415 q 38 213 14 275 q 101 106 61 151 q 196 33 142 60 q 311 6 250 6 m 450 818 q 397 826 426 818 q 331 857 367 833 q 197 875 258 903 q 178 863 186 868 q 164 850 171 857 q 151 836 157 843 l 140 844 q 153 860 140 846 q 192 888 167 875 q 218 897 203 893 q 252 899 233 900 q 292 890 271 897 q 339 868 314 883 q 420 835 385 839 q 479 835 456 831 q 500 842 490 838 q 517 849 510 846 q 531 857 524 853 l 539 846 q 524 836 532 842 q 506 828 517 832 q 482 821 496 824 q 467 819 475 819 q 450 818 460 818 z "},"ô":{"ha":681,"x_min":0,"x_max":624,"o":"m 532 594 q 600 480 576 544 q 624 344 624 415 q 600 210 624 274 q 532 96 576 146 q 431 19 488 46 q 311 -8 375 -8 q 192 19 249 -8 q 90 96 135 46 q 23 210 46 146 q 0 344 0 274 q 23 480 0 415 q 90 594 46 544 q 192 672 135 644 q 311 699 249 699 q 431 672 375 699 q 532 594 488 644 m 311 6 q 428 33 374 6 q 522 106 482 60 q 586 213 563 151 q 610 344 610 275 q 586 477 610 415 q 522 585 563 539 q 428 658 482 631 q 311 685 374 685 q 196 658 250 685 q 101 585 142 631 q 38 477 61 539 q 14 344 14 415 q 38 213 14 275 q 101 106 61 151 q 196 33 142 60 q 311 6 250 6 m 218 774 l 207 782 l 346 956 l 474 782 l 463 774 l 346 933 l 218 774 z "},"ó":{"ha":681,"x_min":0,"x_max":624,"o":"m 532 594 q 600 480 576 544 q 624 344 624 415 q 600 210 624 274 q 532 96 576 146 q 431 19 488 46 q 311 -8 375 -8 q 192 19 249 -8 q 90 96 135 46 q 23 210 46 146 q 0 344 0 274 q 23 480 0 415 q 90 594 46 544 q 192 672 135 644 q 311 699 249 699 q 431 672 375 699 q 532 594 488 644 m 311 6 q 428 33 374 6 q 522 106 482 60 q 586 213 563 151 q 610 344 610 275 q 586 477 610 415 q 522 585 563 539 q 428 658 482 631 q 311 685 374 685 q 196 658 250 685 q 101 585 142 631 q 38 477 61 539 q 14 344 14 415 q 38 213 14 275 q 101 106 61 151 q 196 33 142 60 q 311 6 250 6 m 224 797 l 221 811 l 456 878 l 458 864 l 224 797 l 224 797 l 224 797 z "},"ò":{"ha":681,"x_min":0,"x_max":624,"o":"m 532 594 q 600 480 576 544 q 624 344 624 415 q 600 210 624 274 q 532 96 576 146 q 431 19 488 46 q 311 -8 375 -8 q 192 19 249 -8 q 90 96 135 46 q 23 210 46 146 q 0 344 0 274 q 23 480 0 415 q 90 594 46 544 q 192 672 135 644 q 311 699 249 699 q 431 672 375 699 q 532 594 488 644 m 311 6 q 428 33 374 6 q 522 106 482 60 q 586 213 563 151 q 610 344 610 275 q 586 477 610 415 q 522 585 563 539 q 428 658 482 631 q 311 685 374 685 q 196 658 250 685 q 101 585 142 631 q 38 477 61 539 q 14 344 14 415 q 38 213 14 275 q 101 106 61 151 q 196 33 142 60 q 311 6 250 6 m 446 794 l 228 894 l 233 907 l 451 807 l 446 794 l 446 794 l 446 794 z "},"ñ":{"ha":674,"x_min":3,"x_max":628,"o":"m 536 597 q 604 483 581 547 q 628 347 628 418 l 628 1 l 614 1 l 614 347 q 590 480 614 418 q 526 588 567 542 q 432 660 486 633 q 315 688 378 688 q 200 660 254 688 q 106 588 146 633 q 42 480 65 542 q 18 347 18 418 l 17 347 l 17 0 l 3 0 l 3 686 l 17 686 l 17 447 q 47 528 28 490 q 94 597 67 565 q 196 674 139 647 q 315 701 253 701 q 435 674 379 701 q 536 597 492 647 m 447 818 q 394 826 424 818 q 328 857 364 833 q 194 875 256 903 q 176 863 183 868 q 161 850 168 857 q 149 836 154 843 l 138 844 q 151 860 138 846 q 189 888 164 875 q 215 897 200 893 q 249 899 231 900 q 290 890 268 897 q 336 868 311 883 q 417 835 382 839 q 476 835 453 831 q 497 842 488 838 q 514 849 507 846 q 528 857 521 853 l 536 846 q 521 836 529 842 q 503 828 514 832 q 479 821 493 824 q 465 819 472 819 q 447 818 457 818 z "},"ð":{"ha":778,"x_min":1,"x_max":711,"o":"m 707 361 q 708 349 708 354 q 708 336 708 343 q 681 201 708 265 q 604 86 654 136 q 490 10 554 36 q 354 -17 425 -17 q 219 10 283 -17 q 104 86 156 36 q 28 201 54 136 q 1 336 1 265 q 28 472 1 407 q 104 586 54 536 q 219 663 156 636 q 354 690 283 690 q 490 663 425 690 q 604 586 554 636 q 696 429 672 518 q 607 836 688 681 q 520 952 571 907 q 407 1014 469 997 q 311 1023 358 1028 q 222 1001 264 1018 q 148 956 181 983 q 96 896 115 928 l 85 903 q 140 967 106 939 q 219 1014 175 996 q 335 1038 278 1038 q 410 1028 376 1038 q 619 843 540 992 q 711 361 711 668 l 707 361 m 354 676 q 223 649 285 676 q 115 576 161 622 q 42 469 69 531 q 15 336 15 407 q 42 203 15 265 q 115 96 69 142 q 223 24 161 50 q 354 -3 285 -3 q 487 24 425 -3 q 594 96 549 50 q 667 203 640 142 q 694 336 694 265 q 667 469 694 407 q 594 576 640 531 q 487 649 549 622 q 354 676 425 676 m 425 892 l 422 906 l 657 972 l 660 958 l 425 892 z "},"ë":{"ha":686,"x_min":1,"x_max":624,"o":"m 17 379 l 610 379 q 585 501 608 444 q 522 600 563 558 q 428 666 482 642 q 313 690 375 690 q 198 663 251 690 q 103 590 144 636 q 39 481 63 543 q 15 350 15 419 q 39 219 15 281 q 103 111 63 157 q 197 38 143 65 q 313 11 251 11 q 406 28 361 11 q 488 75 450 44 q 553 148 525 106 q 596 243 581 190 l 610 239 q 497 65 578 133 q 313 -3 417 -3 q 193 24 250 -3 q 92 101 136 51 q 24 215 47 151 q 1 350 1 279 q 26 485 1 421 q 94 600 50 550 q 193 676 135 649 q 313 704 253 704 q 431 680 375 704 q 532 610 488 656 q 600 503 576 564 q 624 372 624 442 l 624 365 l 17 365 l 17 379 m 274 851 l 260 851 l 260 879 l 274 879 l 274 851 l 274 851 l 274 851 m 426 851 l 413 851 l 413 879 l 426 879 l 426 851 l 426 851 l 426 851 z "},"ê":{"ha":686,"x_min":1,"x_max":624,"o":"m 17 379 l 610 379 q 585 501 608 444 q 522 600 563 558 q 428 666 482 642 q 313 690 375 690 q 198 663 251 690 q 103 590 144 636 q 39 481 63 543 q 15 350 15 419 q 39 219 15 281 q 103 111 63 157 q 197 38 143 65 q 313 11 251 11 q 406 28 361 11 q 488 75 450 44 q 553 148 525 106 q 596 243 581 190 l 610 239 q 497 65 578 133 q 313 -3 417 -3 q 193 24 250 -3 q 92 101 136 51 q 24 215 47 151 q 1 350 1 279 q 26 485 1 421 q 94 600 50 550 q 193 676 135 649 q 313 704 253 704 q 431 680 375 704 q 532 610 488 656 q 600 503 576 564 q 624 372 624 442 l 624 365 l 17 365 l 17 379 m 221 774 l 210 782 l 349 956 l 476 782 l 465 774 l 349 933 l 221 774 z "},"é":{"ha":686,"x_min":1,"x_max":624,"o":"m 17 379 l 610 379 q 585 501 608 444 q 522 600 563 558 q 428 666 482 642 q 313 690 375 690 q 198 663 251 690 q 103 590 144 636 q 39 481 63 543 q 15 350 15 419 q 39 219 15 281 q 103 111 63 157 q 197 38 143 65 q 313 11 251 11 q 406 28 361 11 q 488 75 450 44 q 553 148 525 106 q 596 243 581 190 l 610 239 q 497 65 578 133 q 313 -3 417 -3 q 193 24 250 -3 q 92 101 136 51 q 24 215 47 151 q 1 350 1 279 q 26 485 1 421 q 94 600 50 550 q 193 676 135 649 q 313 704 253 704 q 431 680 375 704 q 532 610 488 656 q 600 503 576 564 q 624 372 624 442 l 624 365 l 17 365 l 17 379 m 226 797 l 224 811 l 458 878 l 461 864 l 226 797 l 226 797 l 226 797 z "},"è":{"ha":686,"x_min":1,"x_max":624,"o":"m 17 379 l 610 379 q 585 501 608 444 q 522 600 563 558 q 428 666 482 642 q 313 690 375 690 q 198 663 251 690 q 103 590 144 636 q 39 481 63 543 q 15 350 15 419 q 39 219 15 281 q 103 111 63 157 q 197 38 143 65 q 313 11 251 11 q 406 28 361 11 q 488 75 450 44 q 553 148 525 106 q 596 243 581 190 l 610 239 q 497 65 578 133 q 313 -3 417 -3 q 193 24 250 -3 q 92 101 136 51 q 24 215 47 151 q 1 350 1 279 q 26 485 1 421 q 94 600 50 550 q 193 676 135 649 q 313 704 253 704 q 431 680 375 704 q 532 610 488 656 q 600 503 576 564 q 624 372 624 442 l 624 365 l 17 365 l 17 379 m 449 794 l 231 894 l 236 907 l 454 807 l 449 794 l 449 794 l 449 794 z "},"æ":{"ha":1199,"x_min":4,"x_max":1143,"o":"m 268 696 q 370 675 322 696 q 453 619 418 654 q 510 536 489 583 q 531 435 531 489 l 531 -4 l 517 -4 l 517 299 q 510 265 514 282 q 501 233 507 249 q 469 152 489 189 q 426 85 450 115 q 324 1 383 31 q 213 -25 268 -25 q 68 26 126 -25 q 6 163 6 81 q 88 307 6 269 q 169 327 124 324 q 263 331 215 331 l 282 331 l 303 331 q 388 333 349 331 q 455 349 426 336 q 500 385 483 361 q 517 453 517 410 q 492 542 513 500 q 438 615 471 585 q 360 664 404 646 q 268 682 317 682 q 171 663 217 682 q 91 610 125 643 q 38 531 57 576 q 18 435 18 486 l 4 435 q 25 536 4 489 q 81 619 46 583 q 165 675 117 654 q 268 696 214 696 m 415 94 q 514 382 499 197 q 458 336 494 350 q 376 319 422 321 q 282 317 331 317 l 263 317 q 172 313 217 317 q 93 294 128 310 q 19 163 19 261 q 34 94 19 125 q 75 39 49 63 q 136 2 101 15 q 213 -11 171 -11 q 323 16 271 -11 q 415 94 375 43 m 536 379 l 1129 379 q 1105 501 1128 444 q 1042 600 1082 558 q 948 666 1001 642 q 832 690 894 690 q 717 663 771 690 q 623 590 664 636 q 558 481 582 543 q 535 350 535 419 q 558 219 535 281 q 622 111 582 157 q 717 38 663 65 q 832 11 771 11 q 925 28 881 11 q 1007 75 969 44 q 1072 148 1044 106 q 1115 243 1100 190 l 1129 239 q 1017 65 1097 133 q 832 -3 936 -3 q 713 24 769 -3 q 611 101 656 51 q 544 215 567 151 q 521 350 521 279 q 545 485 521 421 q 614 600 569 550 q 713 676 654 649 q 832 704 772 704 q 951 680 894 704 q 1051 610 1007 656 q 1119 503 1096 564 q 1143 372 1143 442 l 1143 365 l 536 365 l 536 379 z "},"å":{"ha":575,"x_min":4,"x_max":531,"o":"m 268 696 q 370 675 322 696 q 453 619 418 654 q 510 536 489 583 q 531 435 531 489 l 531 -4 l 517 -4 l 517 299 q 510 265 514 282 q 501 233 507 249 q 469 152 489 189 q 426 85 450 115 q 324 1 383 31 q 213 -25 268 -25 q 68 26 126 -25 q 6 163 6 81 q 88 307 6 269 q 169 327 124 324 q 263 331 215 331 l 282 331 l 303 331 q 388 333 349 331 q 455 349 426 336 q 500 385 483 361 q 517 453 517 410 q 492 542 513 500 q 438 615 471 585 q 360 664 404 646 q 268 682 317 682 q 171 663 217 682 q 91 610 125 643 q 38 531 57 576 q 18 435 18 486 l 4 435 q 25 536 4 489 q 81 619 46 583 q 165 675 117 654 q 268 696 214 696 m 415 94 q 514 382 499 197 q 458 336 494 350 q 376 319 422 321 q 282 317 331 317 l 263 317 q 172 313 217 317 q 93 294 128 310 q 19 163 19 261 q 34 94 19 125 q 75 39 49 63 q 136 2 101 15 q 213 -11 171 -11 q 323 16 271 -11 q 415 94 375 43 m 286 747 q 213 777 243 747 q 183 850 183 807 q 213 924 183 894 q 286 954 243 954 q 360 924 331 954 q 390 850 390 894 q 360 777 390 807 q 286 747 331 747 m 286 940 q 224 914 250 940 q 197 850 197 888 q 224 788 197 814 q 286 761 250 761 q 350 788 324 761 q 376 850 376 814 q 350 914 376 888 q 286 940 324 940 z "},"ä":{"ha":575,"x_min":4,"x_max":531,"o":"m 268 696 q 370 675 322 696 q 453 619 418 654 q 510 536 489 583 q 531 435 531 489 l 531 -4 l 517 -4 l 517 299 q 510 265 514 282 q 501 233 507 249 q 469 152 489 189 q 426 85 450 115 q 324 1 383 31 q 213 -25 268 -25 q 68 26 126 -25 q 6 163 6 81 q 88 307 6 269 q 169 327 124 324 q 263 331 215 331 l 282 331 l 303 331 q 388 333 349 331 q 455 349 426 336 q 500 385 483 361 q 517 453 517 410 q 492 542 513 500 q 438 615 471 585 q 360 664 404 646 q 268 682 317 682 q 171 663 217 682 q 91 610 125 643 q 38 531 57 576 q 18 435 18 486 l 4 435 q 25 536 4 489 q 81 619 46 583 q 165 675 117 654 q 268 696 214 696 m 415 94 q 514 382 499 197 q 458 336 494 350 q 376 319 422 321 q 282 317 331 317 l 263 317 q 172 313 217 317 q 93 294 128 310 q 19 163 19 261 q 34 94 19 125 q 75 39 49 63 q 136 2 101 15 q 213 -11 171 -11 q 323 16 271 -11 q 415 94 375 43 m 218 851 l 204 851 l 204 879 l 218 879 l 218 851 l 218 851 l 218 851 m 371 851 l 357 851 l 357 879 l 371 879 l 371 851 l 371 851 l 371 851 z "},"ã":{"ha":575,"x_min":4,"x_max":531,"o":"m 268 696 q 370 675 322 696 q 453 619 418 654 q 510 536 489 583 q 531 435 531 489 l 531 -4 l 517 -4 l 517 299 q 510 265 514 282 q 501 233 507 249 q 469 152 489 189 q 426 85 450 115 q 324 1 383 31 q 213 -25 268 -25 q 68 26 126 -25 q 6 163 6 81 q 88 307 6 269 q 169 327 124 324 q 263 331 215 331 l 282 331 l 303 331 q 388 333 349 331 q 455 349 426 336 q 500 385 483 361 q 517 453 517 410 q 492 542 513 500 q 438 615 471 585 q 360 664 404 646 q 268 682 317 682 q 171 663 217 682 q 91 610 125 643 q 38 531 57 576 q 18 435 18 486 l 4 435 q 25 536 4 489 q 81 619 46 583 q 165 675 117 654 q 268 696 214 696 m 415 94 q 514 382 499 197 q 458 336 494 350 q 376 319 422 321 q 282 317 331 317 l 263 317 q 172 313 217 317 q 93 294 128 310 q 19 163 19 261 q 34 94 19 125 q 75 39 49 63 q 136 2 101 15 q 213 -11 171 -11 q 323 16 271 -11 q 415 94 375 43 m 397 818 q 344 826 374 818 q 278 857 314 833 q 144 875 206 903 q 126 863 133 868 q 111 850 118 857 q 99 836 104 843 l 88 844 q 101 860 88 846 q 139 888 114 875 q 165 897 150 893 q 199 899 181 900 q 240 890 218 897 q 286 868 261 883 q 367 835 332 839 q 426 835 403 831 q 447 842 438 838 q 464 849 457 846 q 478 857 471 853 l 486 846 q 471 836 479 842 q 453 828 464 832 q 429 821 443 824 q 415 819 422 819 q 397 818 407 818 z "},"â":{"ha":575,"x_min":4,"x_max":531,"o":"m 268 696 q 370 675 322 696 q 453 619 418 654 q 510 536 489 583 q 531 435 531 489 l 531 -4 l 517 -4 l 517 299 q 510 265 514 282 q 501 233 507 249 q 469 152 489 189 q 426 85 450 115 q 324 1 383 31 q 213 -25 268 -25 q 68 26 126 -25 q 6 163 6 81 q 88 307 6 269 q 169 327 124 324 q 263 331 215 331 l 282 331 l 303 331 q 388 333 349 331 q 455 349 426 336 q 500 385 483 361 q 517 453 517 410 q 492 542 513 500 q 438 615 471 585 q 360 664 404 646 q 268 682 317 682 q 171 663 217 682 q 91 610 125 643 q 38 531 57 576 q 18 435 18 486 l 4 435 q 25 536 4 489 q 81 619 46 583 q 165 675 117 654 q 268 696 214 696 m 415 94 q 514 382 499 197 q 458 336 494 350 q 376 319 422 321 q 282 317 331 317 l 263 317 q 172 313 217 317 q 93 294 128 310 q 19 163 19 261 q 34 94 19 125 q 75 39 49 63 q 136 2 101 15 q 213 -11 171 -11 q 323 16 271 -11 q 415 94 375 43 m 165 774 l 154 782 l 293 956 l 421 782 l 410 774 l 293 933 l 165 774 z "},"á":{"ha":575,"x_min":4,"x_max":531,"o":"m 268 696 q 370 675 322 696 q 453 619 418 654 q 510 536 489 583 q 531 435 531 489 l 531 -4 l 517 -4 l 517 299 q 510 265 514 282 q 501 233 507 249 q 469 152 489 189 q 426 85 450 115 q 324 1 383 31 q 213 -25 268 -25 q 68 26 126 -25 q 6 163 6 81 q 88 307 6 269 q 169 327 124 324 q 263 331 215 331 l 282 331 l 303 331 q 388 333 349 331 q 455 349 426 336 q 500 385 483 361 q 517 453 517 410 q 492 542 513 500 q 438 615 471 585 q 360 664 404 646 q 268 682 317 682 q 171 663 217 682 q 91 610 125 643 q 38 531 57 576 q 18 435 18 486 l 4 435 q 25 536 4 489 q 81 619 46 583 q 165 675 117 654 q 268 696 214 696 m 415 94 q 514 382 499 197 q 458 336 494 350 q 376 319 422 321 q 282 317 331 317 l 263 317 q 172 313 217 317 q 93 294 128 310 q 19 163 19 261 q 34 94 19 125 q 75 39 49 63 q 136 2 101 15 q 213 -11 171 -11 q 323 16 271 -11 q 415 94 375 43 m 171 797 l 168 811 l 403 878 l 406 864 l 171 797 l 171 797 l 171 797 z "},"à":{"ha":575,"x_min":4,"x_max":531,"o":"m 268 696 q 370 675 322 696 q 453 619 418 654 q 510 536 489 583 q 531 435 531 489 l 531 -4 l 517 -4 l 517 299 q 510 265 514 282 q 501 233 507 249 q 469 152 489 189 q 426 85 450 115 q 324 1 383 31 q 213 -25 268 -25 q 68 26 126 -25 q 6 163 6 81 q 88 307 6 269 q 169 327 124 324 q 263 331 215 331 l 282 331 l 303 331 q 388 333 349 331 q 455 349 426 336 q 500 385 483 361 q 517 453 517 410 q 492 542 513 500 q 438 615 471 585 q 360 664 404 646 q 268 682 317 682 q 171 663 217 682 q 91 610 125 643 q 38 531 57 576 q 18 435 18 486 l 4 435 q 25 536 4 489 q 81 619 46 583 q 165 675 117 654 q 268 696 214 696 m 415 94 q 514 382 499 197 q 458 336 494 350 q 376 319 422 321 q 282 317 331 317 l 263 317 q 172 313 217 317 q 93 294 128 310 q 19 163 19 261 q 34 94 19 125 q 75 39 49 63 q 136 2 101 15 q 213 -11 171 -11 q 323 16 271 -11 q 415 94 375 43 m 393 794 l 175 894 l 181 907 l 399 807 l 393 794 l 393 794 l 393 794 z "},"ì":{"ha":133,"x_min":-43,"x_max":181,"o":"m 29 4 l 29 701 l 43 701 l 43 4 l 29 4 m 29 881 l 43 881 l 43 872 l 29 872 l 29 881 m 175 794 l -43 894 l -37 907 l 181 807 l 175 794 l 175 794 l 175 794 z "},"í":{"ha":133,"x_min":-51,"x_max":186,"o":"m 29 4 l 43 4 l 43 701 l 29 701 l 29 4 l 29 4 m -49 847 l -51 861 l 183 928 l 186 914 l -49 847 l -49 847 l -49 847 z "},"î":{"ha":133,"x_min":-65,"x_max":201,"o":"m 49 4 l 49 701 l 63 701 l 63 4 l 49 4 m 49 881 l 63 881 l 63 872 l 49 872 l 49 881 m -54 774 l -65 782 l 74 956 l 201 782 l 190 774 l 74 933 l -54 774 z "},"ï":{"ha":133,"x_min":-17,"x_max":150,"o":"m 54 4 l 68 4 l 68 701 l 54 701 l 54 4 l 54 4 m -3 851 l -17 851 l -17 879 l -3 879 l -3 851 l -3 851 l -3 851 m 150 851 l 136 851 l 136 879 l 150 879 l 150 851 l 150 851 l 150 851 z "}}}
